<?xml version="1.0" standalone="no"?>
<!DOCTYPE svg PUBLIC "-//W3C//DTD SVG 20010904//EN"
 "http://www.w3.org/TR/2001/REC-SVG-20010904/DTD/svg10.dtd">
<svg version="1.0" xmlns="http://www.w3.org/2000/svg"
 width="1024.000000pt" height="1024.000000pt" viewBox="0 0 1024.000000 1024.000000"
 preserveAspectRatio="xMidYMid meet">

<g transform="translate(0.000000,1024.000000) scale(0.100000,-0.100000)"
fill="#0097a7" stroke="none">
<path d="M2182 6510 c-121 -32 -206 -83 -302 -179 -91 -92 -132 -158 -171
-276 l-24 -70 -3 -750 c-4 -796 -1 -843 43 -962 69 -182 232 -338 418 -400 72
-24 98 -27 212 -27 118 -1 139 2 219 28 199 65 371 233 435 423 39 116 42 181
38 933 -4 813 -2 784 -79 932 -77 149 -225 277 -385 333 -108 38 -292 45 -401
15z m301 -125 c200 -42 374 -214 422 -416 22 -95 22 -1473 0 -1568 -35 -148
-151 -299 -283 -369 l-62 -33 0 122 0 122 70 73 c119 122 114 100 118 579 l3
410 31 24 c58 46 74 130 38 201 -43 84 -142 114 -223 67 -53 -31 -77 -76 -77
-144 0 -57 26 -106 70 -131 l30 -17 0 -258 0 -259 -100 104 -99 103 0 330 -1
330 35 22 c46 30 69 76 69 139 1 174 -239 230 -310 72 -34 -75 -12 -170 47
-205 l29 -17 0 -363 0 -363 85 -88 85 -87 2 -367 c1 -203 2 -380 2 -395 1 -28
0 -28 -66 -31 l-68 -3 0 368 -1 368 -109 115 -110 115 0 178 0 178 39 37 c90
86 69 220 -43 279 -47 24 -129 13 -167 -23 -78 -73 -78 -191 0 -256 20 -17 31
-36 31 -52 0 -26 0 -26 -85 -26 l-85 0 0 318 c0 287 2 327 20 398 36 140 95
233 205 321 124 99 287 134 458 98z m-76 -541 c15 -24 15 -29 2 -53 -28 -51
-99 -35 -99 22 0 40 15 57 52 57 19 0 33 -8 45 -26z m315 -358 c32 -47 -44
-118 -80 -73 -24 30 -23 56 2 82 22 22 29 24 48 14 13 -7 26 -17 30 -23z
m-635 -2 c15 -24 15 -29 2 -53 -38 -68 -125 -9 -89 60 16 29 65 25 87 -7z"/>
<path d="M2258 6373 c7 -3 16 -2 19 1 4 3 -2 6 -13 5 -11 0 -14 -3 -6 -6z"/>
<path d="M2541 5804 c0 -11 3 -14 6 -6 3 7 2 16 -1 19 -3 4 -6 -2 -5 -13z"/>
<path d="M2902 5630 c0 -14 2 -19 5 -12 2 6 2 18 0 25 -3 6 -5 1 -5 -13z"/>
<path d="M2273 5515 c0 -44 2 -61 4 -37 2 23 2 59 0 80 -2 20 -4 1 -4 -43z"/>
<path d="M2904 5440 c0 -52 1 -74 3 -47 2 26 2 68 0 95 -2 26 -3 4 -3 -48z"/>
<path d="M2271 5344 c0 -11 3 -14 6 -6 3 7 2 16 -1 19 -3 4 -6 -2 -5 -13z"/>
<path d="M2904 5220 c0 -63 1 -89 3 -57 2 31 2 83 0 115 -2 31 -3 5 -3 -58z"/>
<path d="M2274 5190 c0 -74 1 -105 3 -67 2 37 2 97 0 135 -2 37 -3 6 -3 -68z"/>
<path d="M2902 5070 c0 -19 2 -27 5 -17 2 9 2 25 0 35 -3 9 -5 1 -5 -18z"/>
<path d="M2272 5010 c0 -19 2 -27 5 -17 2 9 2 25 0 35 -3 9 -5 1 -5 -18z"/>
<path d="M2902 4970 c0 -14 2 -19 5 -12 2 6 2 18 0 25 -3 6 -5 1 -5 -13z"/>
<path d="M2902 4920 c0 -14 2 -19 5 -12 2 6 2 18 0 25 -3 6 -5 1 -5 -13z"/>
<path d="M2902 4595 c0 -16 2 -22 5 -12 2 9 2 23 0 30 -3 6 -5 -1 -5 -18z"/>
<path d="M2902 4510 c0 -14 2 -19 5 -12 2 6 2 18 0 25 -3 6 -5 1 -5 -13z"/>
<path d="M3580 5750 l0 -450 95 0 95 0 0 163 0 163 123 0 c145 -1 202 15 270
74 67 59 90 122 85 231 -4 75 -8 94 -34 136 -36 58 -106 107 -174 122 -28 6
-143 11 -255 11 l-205 0 0 -450z m385 290 c111 -25 139 -181 43 -240 -27 -17
-50 -20 -135 -20 l-103 0 0 135 0 135 78 0 c42 0 95 -5 117 -10z"/>
<path d="M4330 5750 l0 -450 89 0 89 0 4 213 c3 179 6 217 21 245 37 69 136
95 192 50 50 -39 55 -68 55 -298 l0 -210 90 0 90 0 0 233 c0 281 -7 317 -79
388 -91 91 -227 94 -327 6 l-44 -39 0 156 0 156 -90 0 -90 0 0 -450z"/>
<path d="M5279 5977 c-101 -29 -167 -96 -176 -179 l-5 -45 78 3 c78 2 79 2 91
33 32 76 149 95 205 32 20 -23 28 -42 28 -70 l0 -38 -102 -6 c-165 -9 -262
-48 -308 -123 -31 -49 -26 -163 9 -213 36 -51 110 -81 199 -81 82 0 123 14
175 59 l36 32 3 -38 3 -38 85 -3 85 -3 -2 93 c-2 51 -4 167 -6 258 -2 147 -5
170 -24 206 -25 48 -70 88 -122 110 -48 21 -194 27 -252 11z m221 -422 c0 -35
-6 -51 -31 -79 -49 -56 -144 -73 -193 -35 -33 26 -37 86 -6 114 24 22 108 43
178 44 l52 1 0 -45z"/>
<path d="M6131 5978 c-48 -13 -79 -36 -107 -77 l-24 -36 0 53 0 52 -90 0 -90
0 0 -335 0 -335 90 0 90 0 0 193 c0 180 1 196 23 237 29 58 72 80 155 80 54 0
63 2 58 16 -3 9 -6 49 -6 90 l0 74 -32 -1 c-18 0 -48 -5 -67 -11z"/>
<path d="M6595 5971 c-23 -10 -53 -32 -67 -50 -15 -17 -28 -31 -30 -31 -2 0
-3 17 -3 37 0 21 -3 39 -7 41 -5 1 -44 2 -88 2 l-80 0 0 -335 0 -335 90 0 90
0 0 210 c0 232 6 261 58 299 20 14 45 21 77 21 39 0 52 -5 75 -30 15 -16 30
-44 34 -61 3 -17 6 -123 6 -235 l0 -204 90 0 90 0 0 215 c0 234 4 253 56 294
33 26 100 28 133 5 45 -32 51 -67 51 -299 l0 -215 91 0 91 0 -4 253 c-3 231
-5 256 -24 297 -41 87 -103 130 -201 138 -79 6 -141 -16 -194 -69 l-39 -39
-44 44 c-66 67 -167 85 -251 47z"/>
<path d="M7637 5972 c-26 -10 -62 -29 -81 -44 -39 -31 -76 -101 -76 -144 l0
-29 82 1 81 1 11 34 c20 63 118 89 184 49 35 -21 52 -54 52 -99 l0 -28 -107
-6 c-232 -12 -336 -82 -335 -224 1 -72 27 -121 86 -157 39 -24 61 -30 127 -34
93 -5 150 12 195 59 l29 31 5 -39 5 -38 83 -3 82 -3 0 234 c0 279 -8 319 -76
384 -28 28 -61 47 -95 58 -68 20 -191 18 -252 -3z m251 -417 c-10 -87 -62
-128 -161 -129 -50 -1 -62 3 -78 23 -41 50 -16 111 53 129 68 18 80 20 137 21
l54 1 -5 -45z"/>
<path d="M3797 5050 c-54 -14 -128 -54 -159 -87 -91 -96 -90 -252 3 -340 44
-41 98 -65 237 -103 167 -45 212 -72 212 -129 0 -62 -46 -101 -129 -108 -106
-10 -180 27 -205 102 -14 39 -15 40 -60 39 -154 -4 -146 -2 -146 -28 0 -38 21
-88 57 -138 27 -37 52 -56 111 -85 l76 -38 130 0 c103 0 140 4 175 18 127 52
196 171 171 293 -23 110 -101 170 -285 219 -190 50 -227 73 -227 140 0 63 59
105 147 105 78 0 140 -39 164 -103 l11 -28 87 3 88 3 -3 30 c-10 88 -86 180
-180 216 -64 24 -212 34 -275 19z"/>
<path d="M6330 4593 l0 -453 90 0 90 0 0 103 1 102 37 42 38 43 53 -78 c29
-42 73 -107 99 -144 l46 -68 109 0 c86 0 107 3 100 13 -33 43 -142 187 -207
275 l-76 103 22 29 c13 15 69 80 126 143 56 63 102 117 102 121 0 3 -45 6 -99
6 l-99 0 -124 -140 -123 -141 -3 248 -2 248 -90 0 -90 0 0 -452z"/>
<path d="M7070 5048 c0 -9 290 -438 296 -438 7 0 4 5 -144 225 -133 199 -152
225 -152 213z"/>
<path d="M7857 5037 c-3 -9 -64 -103 -134 -207 -170 -254 -160 -238 -141 -220
31 30 289 421 286 432 -3 7 -7 5 -11 -5z"/>
<path d="M7201 5033 l85 -4 90 -152 c50 -84 95 -152 100 -152 5 0 49 68 99
150 l91 150 90 6 89 5 -91 2 -91 2 -93 -156 -93 -157 -21 35 c-11 20 -52 90
-91 156 l-70 121 -90 -1 -90 -2 86 -3z"/>
<path d="M4440 4904 l0 -96 -60 4 -60 4 0 -73 0 -73 59 0 60 0 3 -202 c3 -183
5 -207 24 -243 37 -72 130 -104 254 -90 l60 7 0 72 0 72 -61 -1 c-95 0 -99 8
-99 216 l0 169 85 0 85 0 0 70 0 70 -85 0 -85 0 0 95 0 95 -90 0 -90 0 0 -96z"/>
<path d="M5113 4830 c-105 -15 -191 -79 -212 -157 -21 -73 -21 -73 74 -73 67
0 85 3 85 14 0 8 11 28 25 44 30 36 79 47 135 32 47 -13 80 -56 80 -106 l0
-31 -90 -7 c-176 -13 -248 -35 -302 -93 -53 -56 -61 -160 -18 -230 35 -58 91
-86 181 -91 93 -5 149 12 194 58 16 17 32 30 37 30 4 0 8 -18 8 -40 l0 -40 83
0 83 0 -3 163 c-7 348 -8 359 -31 405 -50 95 -181 144 -329 122z m187 -416 c0
-87 -64 -148 -156 -149 -66 0 -94 22 -94 76 0 64 50 91 190 102 25 2 48 4 53
5 4 1 7 -14 7 -34z"/>
<path d="M5839 4830 c-156 -27 -257 -145 -267 -314 -14 -238 114 -386 334
-387 158 -1 281 90 309 229 l7 32 -86 0 -85 0 -17 -35 c-47 -99 -209 -101
-260 -3 -26 49 -31 177 -10 233 51 133 226 140 270 10 l14 -40 84 2 c96 2 99
5 72 85 -31 95 -120 166 -234 188 -58 11 -65 11 -131 0z"/>
<path d="M7225 4389 c-77 -116 -146 -219 -154 -229 -13 -19 -11 -20 90 -20
l104 0 100 165 c54 91 102 165 105 165 4 0 53 -74 109 -165 l103 -165 105 0
c81 0 103 3 97 13 -27 45 -282 416 -297 432 -18 19 5 -18 138 -215 72 -107
135 -201 139 -207 5 -10 -14 -13 -86 -13 l-93 0 -33 58 c-60 106 -169 267
-183 269 -8 2 -48 -54 -98 -140 -46 -78 -90 -152 -98 -164 -12 -21 -21 -23
-99 -23 -69 0 -85 3 -81 14 3 7 67 107 143 220 75 114 135 208 133 210 -2 2
-67 -90 -144 -205z"/>
</g>
</svg>
