<?xml version="1.0" encoding="UTF-8"?>
<svg version="1.1" xmlns="http://www.w3.org/2000/svg" width="225" height="225">
<path d="M0 0 C7.65283683 6.61581503 14.17917646 13.76519735 19.55664062 22.34570312 C20.14058594 23.24675781 20.72453125 24.1478125 21.32617188 25.07617188 C35.0991807 47.31102926 39.56809115 74.9265502 34.42529297 100.60058594 C33.62908498 103.91930055 32.64294425 107.10709698 31.55664062 110.34570312 C31.24315674 111.29243896 31.24315674 111.29243896 30.92333984 112.25830078 C25.99808598 126.76105205 18.34824151 139.469129 7.55664062 150.34570312 C6.73164063 151.21195313 5.90664062 152.07820312 5.05664062 152.97070312 C4.23164063 153.75445312 3.40664062 154.53820312 2.55664062 155.34570312 C1.94820312 155.93738281 1.33976563 156.5290625 0.71289062 157.13867188 C-21.5697838 178.00849556 -48.76271634 183.1122013 -78.13867188 182.48193359 C-103.43461433 181.43914873 -127.81912833 167.03159139 -145.04101562 149.08398438 C-157.19735941 135.2277291 -165.31359218 119.34279385 -169.44335938 101.34570312 C-169.66765625 100.42273438 -169.89195312 99.49976563 -170.12304688 98.54882812 C-175.53958368 72.28233456 -169.3927924 44.48452671 -155.04492188 22.11132812 C-138.86689041 -1.92388825 -114.8565372 -17.42557187 -86.63085938 -23.59179688 C-55.19733651 -28.66782213 -24.43582489 -20.45860061 0 0 Z M-108.96289062 34.20898438 C-119.94270164 48.24784721 -124.77438138 63.8203073 -123.09570312 81.58789062 C-121.85110452 88.75737478 -119.73258226 96.12752849 -116.25195312 102.54101562 C-113.79107628 108.03340743 -118.65911302 116.80007326 -120.63085938 122.15820312 C-121.06011719 123.27038208 -121.06011719 123.27038208 -121.49804688 124.4050293 C-122.90499366 128.17847772 -123.69022174 130.49965737 -122.44335938 134.34570312 C-112.96008463 126.38200356 -105.53711258 118.15755452 -103.5 105.52636719 C-103.36882293 100.47604993 -105.92572748 96.52182353 -108.54101562 92.37695312 C-114.19788701 83.36312931 -113.52477421 71.28665485 -111.31835938 61.22070312 C-107.51064896 47.77859986 -99.45366667 36.943678 -87.40039062 29.85351562 C-75.53682877 23.80419611 -62.17963592 22.2995907 -49.13476562 25.04101562 C-42.75566722 27.19452686 -37.05971694 30.67987812 -31.44335938 34.34570312 C-30.79753906 34.7659375 -30.15171875 35.18617187 -29.48632812 35.61914062 C-28.12994809 36.51492322 -26.78488186 37.42781932 -25.44335938 38.34570312 C-22.88085962 36.03337891 -22.88085962 36.03337891 -20.44335938 33.34570312 C-20.13172053 30.40035989 -20.13172053 30.40035989 -21.70117188 28.76757812 C-34.15966898 17.6122711 -49.75254427 12.4049174 -66.34570312 12.99414062 C-83.03324091 14.09685883 -97.96868998 21.71479976 -108.96289062 34.20898438 Z M-89.44335938 48.34570312 C-92.94282147 53.4138896 -93.46598427 58.38597938 -92.44335938 64.34570312 C-89.60962119 72.05306903 -84.67554178 82.40606707 -77.23242188 86.58789062 C-76.34683594 86.96300781 -76.34683594 86.96300781 -75.44335938 87.34570312 C-74.51523438 86.17007813 -74.51523438 86.17007813 -73.56835938 84.97070312 C-71.44335938 82.34570312 -71.44335938 82.34570312 -69.44335938 80.34570312 C-69.96027344 79.67023438 -70.4771875 78.99476562 -71.00976562 78.29882812 C-71.66847656 77.40679687 -72.3271875 76.51476562 -73.00585938 75.59570312 C-73.99779297 74.273125 -73.99779297 74.273125 -75.00976562 72.92382812 C-76.44335938 70.34570312 -76.44335938 70.34570312 -76.25976562 68.12695312 C-75.44335938 66.34570312 -75.44335938 66.34570312 -73.81835938 64.59570312 C-72.0912088 61.76945672 -72.31636962 59.79088344 -72.85351562 56.58007812 C-73.9154894 52.55723706 -75.43904255 47.35001995 -78.44335938 44.34570312 C-83.55547034 43.76478142 -85.86423807 44.66984881 -89.44335938 48.34570312 Z " fill="#54C53C" transform="translate(180.443359375,33.654296875)"/>
<path d="M0 0 C0.66 0 1.32 0 2 0 C2 0.66 2 1.32 2 2 C2.58910156 2.27199219 3.17820312 2.54398437 3.78515625 2.82421875 C5.95391947 3.9755375 7.59506415 5.19983675 9.4375 6.8125 C10.27087891 7.53373047 10.27087891 7.53373047 11.12109375 8.26953125 C13.48368012 10.44546838 15.7288209 12.7288209 18 15 C20.06379199 16.97961145 22.15252932 18.93115479 24.25 20.875 C24.81485107 21.3994873 25.37970215 21.92397461 25.96166992 22.46435547 C29.95681669 26.13606132 34.08481415 29.51722673 38.48828125 32.6953125 C38.98714844 33.12585938 39.48601562 33.55640625 40 34 C40 34.66 40 35.32 40 36 C40.556875 36.2475 41.11375 36.495 41.6875 36.75 C44.51282126 38.27720068 46.67992585 39.75953623 49 42 C53.1352008 60.77535271 42.11801857 84.18294152 32.37109375 99.54296875 C29.0826102 104.48861943 25.17575051 108.79136957 21 113 C20.175 113.86625 19.35 114.7325 18.5 115.625 C17.675 116.40875 16.85 117.1925 16 118 C15.3915625 118.59167969 14.783125 119.18335938 14.15625 119.79296875 C-8.12642442 140.66279244 -35.31935696 145.76649817 -64.6953125 145.13623047 C-71.03945969 144.87470312 -76.90782453 143.83284694 -83 142 C-84.21300781 141.67128906 -85.42601563 141.34257812 -86.67578125 141.00390625 C-93.35095859 138.89557155 -93.35095859 138.89557155 -96 137 C-96.95326 134.94410795 -97.53726268 132.89332576 -98.14599609 130.71044922 C-100.23321189 124.08601531 -103.80141772 117.91954652 -106.88085938 111.7109375 C-107.40873047 110.63328125 -107.93660156 109.555625 -108.48046875 108.4453125 C-108.96410889 107.47094238 -109.44774902 106.49657227 -109.94604492 105.49267578 C-111 103 -111 103 -111 100 C-107.02379365 98.56023345 -103.04141643 97.13941542 -99.05371094 95.73193359 C-97.02276282 95.00811257 -94.99981415 94.26454998 -92.9765625 93.51953125 C-91.67215189 93.05391107 -90.36747181 92.589045 -89.0625 92.125 C-87.87785156 91.69445312 -86.69320312 91.26390625 -85.47265625 90.8203125 C-79.62312633 89.43853378 -74.85630341 90.85170817 -69.375 93 C-54.49193127 98.79970587 -37.46539117 97.33058695 -23 91 C-7.26127996 82.54562761 2.95693635 70.32776714 8.63671875 53.359375 C10.2877592 47.64616611 10.53652638 42.17106899 10.5 36.25 C10.49359497 34.67001221 10.49359497 34.67001221 10.48706055 33.05810547 C10.30017661 24.4693687 8.81945659 17.76278745 5 10 C4.52304688 8.989375 4.04609375 7.97875 3.5546875 6.9375 C2.41626302 4.59559822 1.23967042 2.28943388 0 0 Z " fill="#2D6E1F" transform="translate(167,71)"/>
<path d="M0 0 C9.58871575 7.28193758 16.87064723 19.10644408 19 31 C20.48416202 44.08389441 19.0424563 57.47650539 11.125 68.4375 C10.09870866 69.63831297 9.05685946 70.82600095 8 72 C7.47664063 72.67417969 6.95328125 73.34835938 6.4140625 74.04296875 C-1.06085419 83.39538799 -11.5884555 87.89711387 -23 90.75 C-33.55832058 91.62986005 -43.77841152 91.12662199 -53.1875 85.75 C-57.61469627 83.36260697 -61.21723926 83.83465728 -66 85 C-68.38344704 85.7252327 -70.7217155 86.50508699 -73.0546875 87.37890625 C-75 88 -75 88 -78 88 C-77.5422281 86.31234761 -77.0837511 84.62488648 -76.625 82.9375 C-76.36976562 81.99777344 -76.11453125 81.05804688 -75.8515625 80.08984375 C-75 77 -75 77 -73.6953125 73.55859375 C-72.78848273 68.91745939 -73.91822304 67.17347889 -76.25 63.125 C-82.90921557 50.86939837 -83.87915047 38.44515905 -80.03125 24.90625 C-75.18360475 11.2447043 -65.9561141 0.53002007 -53 -6 C-34.87899371 -14.16414321 -15.95950811 -11.10113084 0 0 Z M-58 15 C-61.49946209 20.06818648 -62.02262489 25.04027625 -61 31 C-58.16626182 38.7073659 -53.23218241 49.06036395 -45.7890625 53.2421875 C-44.90347656 53.61730469 -44.90347656 53.61730469 -44 54 C-43.071875 52.824375 -43.071875 52.824375 -42.125 51.625 C-40 49 -40 49 -38 47 C-38.51691406 46.32453125 -39.03382812 45.6490625 -39.56640625 44.953125 C-40.22511719 44.06109375 -40.88382813 43.1690625 -41.5625 42.25 C-42.55443359 40.92742187 -42.55443359 40.92742187 -43.56640625 39.578125 C-45 37 -45 37 -44.81640625 34.78125 C-44 33 -44 33 -42.375 31.25 C-40.64784942 28.4237536 -40.87301025 26.44518031 -41.41015625 23.234375 C-42.47213003 19.21153394 -43.99568317 14.00431683 -47 11 C-52.11211097 10.4190783 -54.42087869 11.32414568 -58 15 Z " fill="#449E31" transform="translate(149,67)"/>
<path d="M0 0 C1.35738281 0.70576172 1.35738281 0.70576172 2.7421875 1.42578125 C7.39328701 4.03444141 11.04394559 6.43155227 14 11 C13.34 12.32 12.68 13.64 12 15 C11.34 15 10.68 15 10 15 C10 15.66 10 16.32 10 17 C9.34 17 8.68 17 8 17 C8 17.66 8 18.32 8 19 C6.125 21.125 6.125 21.125 4 23 C3.34 23 2.68 23 2 23 C2 23.66 2 24.32 2 25 C1.34 25 0.68 25 0 25 C0 25.66 0 26.32 0 27 C-1.875 29.125 -1.875 29.125 -4 31 C-4.66 31 -5.32 31 -6 31 C-6 31.66 -6 32.32 -6 33 C-10.30232558 37.76744186 -10.30232558 37.76744186 -14 39 C-14 39.66 -14 40.32 -14 41 C-14.66 41 -15.32 41 -16 41 C-16 41.66 -16 42.32 -16 43 C-17.93530766 44.82729049 -19.99047623 46.46895378 -22.0546875 48.1484375 C-24.00628224 50.00597948 -24.968272 51.53471309 -26 54 C-24.61133677 54.9893091 -23.21370149 55.96603078 -21.8125 56.9375 C-20.64654297 57.75541016 -20.64654297 57.75541016 -19.45703125 58.58984375 C-16.92049701 60.0456289 -14.8781818 60.59613435 -12 61 C-10.02 58.69 -8.04 56.38 -6 54 C-1.85701333 54.59834725 1.18194377 56.00664285 4.8125 58.0625 C5.78832031 58.61035156 6.76414063 59.15820312 7.76953125 59.72265625 C8.50558594 60.14417969 9.24164063 60.56570312 10 61 C10.60773481 68.17127072 10.60773481 68.17127072 7.9375 71.8125 C2.39715802 75.93828658 -2.11747045 77.48548964 -9 77 C-11.74202693 76.21661358 -14.28519682 75.12407689 -16.875 73.9375 C-17.57173828 73.62675537 -18.26847656 73.31601074 -18.98632812 72.99584961 C-24.60392633 70.39411779 -29.41852286 67.18696105 -34 63 C-33.29795092 58.60295579 -31.96828429 56.35128872 -29 53 C-29.51691406 52.32453125 -30.03382812 51.6490625 -30.56640625 50.953125 C-31.22511719 50.06109375 -31.88382813 49.1690625 -32.5625 48.25 C-33.22378906 47.36828125 -33.88507813 46.4865625 -34.56640625 45.578125 C-36 43 -36 43 -35.81640625 40.78125 C-35 39 -35 39 -33.375 37.25 C-31.64540374 34.41975157 -31.86117763 32.44202447 -32.43359375 29.23046875 C-33.45720908 25.19954219 -34.56792046 21.41786325 -37 18 C-39.4429926 16.64219939 -41.1755889 16.38020919 -44 16 C-44 15.01 -44 14.02 -44 13 C-44.66 13.66 -45.32 14.32 -46 15 C-48 14.875 -48 14.875 -50 14 C-51.1875 12.0625 -51.1875 12.0625 -52 10 C-52.33 9.34 -52.66 8.68 -53 8 C-40.90326972 -6.11285199 -15.95254253 -8.33533171 0 0 Z " fill="#55C53C" transform="translate(139,61)"/>
<path d="M0 0 C7.43619443 3.2195018 10.94618659 14.71764119 13.875 21.78125 C18.42875859 33.91441886 17.93727741 50.98141498 13.3671875 63.06640625 C5.97559205 78.74093659 -4.51241043 91.27981956 -20.9609375 97.8828125 C-22.28738281 98.4396875 -22.28738281 98.4396875 -23.640625 99.0078125 C-37.71432438 104.16458785 -53.16590218 103.49921618 -66.9609375 97.8828125 C-67.73566406 97.48835938 -68.51039062 97.09390625 -69.30859375 96.6875 C-76.45826297 94.51838091 -83.99453285 98.06009144 -90.7109375 100.4453125 C-92.55793589 101.09802078 -94.40683456 101.74538278 -96.2578125 102.38671875 C-97.46969238 102.81706421 -97.46969238 102.81706421 -98.70605469 103.25610352 C-100.9609375 103.8828125 -100.9609375 103.8828125 -104.9609375 103.8828125 C-102.16758562 97.35987543 -96.36551831 91.08781042 -89.97509766 87.88867188 C-83.16948686 85.17088295 -74.61403185 81.91650489 -67.5390625 84.90625 C-66.38664062 85.57527344 -66.38664062 85.57527344 -65.2109375 86.2578125 C-53.81370396 92.27159941 -41.4567042 92.0334637 -29.171875 88.92578125 C-16.04968247 84.66346324 -6.21385432 76.10798955 0.2265625 64.0078125 C0.85377318 62.64317001 1.45774948 61.26762929 2.0390625 59.8828125 C2.48958984 58.84640625 2.48958984 58.84640625 2.94921875 57.7890625 C6.94867417 46.92542544 6.53110544 33.35635896 2.390625 22.6328125 C0.42995913 18.64348078 -1.91490709 14.98670578 -4.47265625 11.35546875 C-6.0086081 8.80361175 -6.56761719 6.8143599 -6.9609375 3.8828125 C-2.55835334 -0.15288964 -2.55835334 -0.15288964 0 0 Z " fill="#D6DCD5" transform="translate(161.9609375,66.1171875)"/>
<path d="M0 0 C5.97839765 4.63630838 9.94317382 9.63918567 14 16 C14.58910156 16.9075 15.17820313 17.815 15.78515625 18.75 C26.04474967 35.34573793 30.81070918 53.51295334 30 73 C26.59780091 71.37159701 23.83178943 69.51714616 21 67 C21 66.34 21 65.68 21 65 C20.45472656 64.77441406 19.90945312 64.54882812 19.34765625 64.31640625 C16.30198194 62.60859886 13.94662661 60.32959113 11.4375 57.9375 C6.61740564 53.42085164 1.65043751 49.17817516 -3.52734375 45.0703125 C-6.17808133 42.85089557 -8.56641312 40.45346913 -11 38 C-12.08900847 37.08579983 -13.19014735 36.18544095 -14.3125 35.3125 C-15.199375 34.549375 -16.08625 33.78625 -17 33 C-17 32.34 -17 31.68 -17 31 C-17.598125 30.9175 -18.19625 30.835 -18.8125 30.75 C-21.6788626 29.76724711 -22.56592275 28.64172124 -24 26 C-23.84164571 23.3871543 -23.22064124 22.26860673 -21.5625 20.25 C-20 19 -20 19 -18 19 C-17.67 18.01 -17.34 17.02 -17 16 C-15.55416979 14.75132845 -14.10287521 13.50765046 -12.609375 12.31640625 C-10.23571041 10.3748408 -8.14012335 8.19362644 -6 6 C-4.89714392 4.8945243 -3.79296036 3.79037146 -2.6875 2.6875 C-1.800625 1.800625 -0.91375 0.91375 0 0 Z " fill="#439D30" transform="translate(186,40)"/>
<path d="M0 0 C0.66 0.33 1.32 0.66 2 1 C1.01 2.32 0.02 3.64 -1 5 C-0.34 6.32 0.32 7.64 1 9 C5.04622502 9.36980013 5.04622502 9.36980013 8 7 C8 8.32 8 9.64 8 11 C8.99 11.66 9.98 12.32 11 13 C9.9275 13.350625 8.855 13.70125 7.75 14.0625 C4.27180902 15.58641329 2.35242091 17.41366946 0.66796875 20.9296875 C-1.47039268 27.55735743 -0.38023425 32.86145679 2.5625 39.0625 C6.03620625 45.44193684 9.87624521 51.91749681 16 56 C16 56.66 16 57.32 16 58 C15.01 58.33 14.02 58.66 13 59 C11.38929039 60.62689134 11.38929039 60.62689134 9.8125 62.625 C7.47350586 65.38219268 5.13803624 67.85673582 2.375 70.1875 C-3.78366374 75.39680451 -9.33996799 81.26231511 -15 87 C-13.02 87 -11.04 87 -9 87 C-12.18762365 89.12508244 -14.26512223 89.5020163 -18 90 C-17.5422281 88.31234761 -17.0837511 86.62488648 -16.625 84.9375 C-16.36976562 83.99777344 -16.11453125 83.05804688 -15.8515625 82.08984375 C-15 79 -15 79 -13.6953125 75.55859375 C-12.78848273 70.91745939 -13.91822304 69.17347889 -16.25 65.125 C-22.90921557 52.86939837 -23.87915047 40.44515905 -20.03125 26.90625 C-16.2061222 16.12634438 -9.3945319 6.63143428 0 0 Z " fill="#54C43C" transform="translate(89,65)"/>
<path d="M0 0 C0.73605469 0.49371094 1.47210938 0.98742187 2.23046875 1.49609375 C3.69419922 2.45708984 3.69419922 2.45708984 5.1875 3.4375 C6.15042969 4.07558594 7.11335938 4.71367188 8.10546875 5.37109375 C10.84977757 6.91546187 12.90418343 7.59816641 16 8 C17.98 5.69 19.96 3.38 22 1 C26.14298667 1.59834725 29.18194377 3.00664285 32.8125 5.0625 C33.78832031 5.61035156 34.76414063 6.15820312 35.76953125 6.72265625 C36.87361328 7.35494141 36.87361328 7.35494141 38 8 C38.60773481 15.17127072 38.60773481 15.17127072 35.9375 18.8125 C30.39715802 22.93828658 25.88252955 24.48548964 19 24 C16.25797307 23.21661358 13.71480318 22.12407689 11.125 20.9375 C10.07989258 20.47138306 10.07989258 20.47138306 9.01367188 19.99584961 C3.39607367 17.39411779 -1.41852286 14.18696105 -6 10 C-5.29296777 5.16454967 -3.64468616 3.2708722 0 0 Z " fill="#D7DDD6" transform="translate(111,114)"/>
<path d="M0 0 C2.58605877 5.14266004 5.08788023 10.32644309 7.59521484 15.5078125 C8.19700016 16.74970514 8.80018447 17.99092086 9.40478516 19.23144531 C10.28377387 21.03540797 11.15756451 22.84190045 12.03125 24.6484375 C12.55267578 25.72270996 13.07410156 26.79698242 13.61132812 27.90380859 C14.95230894 30.89366771 16.02213921 33.87471471 17 37 C8.22805436 35.60588721 0.99437869 30.21607448 -5.9375 24.9375 C-6.48083984 24.52636963 -7.02417969 24.11523926 -7.58398438 23.69165039 C-10.89229483 21.10381415 -13.50474838 18.37309918 -16 15 C-15.49210937 14.56429687 -14.98421875 14.12859375 -14.4609375 13.6796875 C-11.06339026 10.74023652 -7.74466037 7.79798935 -4.625 4.5625 C-2 2 -2 2 0 2 C0 1.34 0 0.68 0 0 Z " fill="#439C2F" transform="translate(55,170)"/>
<path d="M0 0 C0.66 0.33 1.32 0.66 2 1 C1.01 2.32 0.02 3.64 -1 5 C-0.34 6.32 0.32 7.64 1 9 C5.04622502 9.36980013 5.04622502 9.36980013 8 7 C8 8.32 8 9.64 8 11 C8.99 11.66 9.98 12.32 11 13 C9.9275 13.350625 8.855 13.70125 7.75 14.0625 C4.34100002 15.56992798 2.3739531 17.33531175 0.64453125 20.75 C-0.68508828 25.39158089 -0.28229524 30.22450556 0 35 C-0.66 34.67 -1.32 34.34 -2 34 C-2 29.05 -2 24.1 -2 19 C-1.34 18.67 -0.68 18.34 0 18 C1.13350534 15.98330173 1.13350534 15.98330173 2 14 C-0.64738916 12.5393715 -1.89448334 12 -5 12 C-6.68236471 11.37400383 -8.3523962 10.71247732 -10 10 C-3.84965831 2.51708428 -3.84965831 2.51708428 0 0 Z " fill="#58BA41" transform="translate(89,65)"/>
<path d="M0 0 C0.66 0 1.32 0 2 0 C2 0.66 2 1.32 2 2 C3.2375 1.649375 4.475 1.29875 5.75 0.9375 C8.903292 0.04406727 10.86774164 -0.00881294 14 1 C11.79290017 1.65003625 9.58426108 2.29484745 7.375 2.9375 C6.14523438 3.29714844 4.91546875 3.65679687 3.6484375 4.02734375 C-12.76054007 8.40189987 -32.68881327 7.66033907 -49 3 C-48.67 2.34 -48.34 1.68 -48 1 C-42.31968694 1.92113185 -42.31968694 1.92113185 -39.92578125 2.51171875 C-33.19660885 4.03959847 -26.61836143 4.18693405 -19.75 4.1875 C-18.80318359 4.1882251 -17.85636719 4.1889502 -16.88085938 4.18969727 C-9.38329395 4.13786291 -9.38329395 4.13786291 -2 3 C-1.34 2.01 -0.68 1.02 0 0 Z " fill="#215315" transform="translate(133,210)"/>
<path d="M0 0 C0.66 0 1.32 0 2 0 C2.74926071 3.66305234 3.2380014 6.42355152 2 10 C2.66 10.33 3.32 10.66 4 11 C3.01 11.33 2.02 11.66 1 12 C0.67 12.66 0.34 13.32 0 14 C-0.99 14.495 -0.99 14.495 -2 15 C-1.05125 15.165 -0.1025 15.33 0.875 15.5 C4 17 4 17 4.84375 18.9140625 C5.32618625 20.92184864 5.67119562 22.96141284 6 25 C5.01 25.33 4.02 25.66 3 26 C1.79719839 24.42825925 0.61318725 22.84212442 -0.5625 21.25 C-1.55443359 19.92742187 -1.55443359 19.92742187 -2.56640625 18.578125 C-4 16 -4 16 -3.8125 13.78125 C-3 12 -3 12 -1.4375 10.25 C0.7433403 6.83651084 0.20006394 4.00127876 0 0 Z " fill="#57BB41" transform="translate(107,88)"/>
<path d="M0 0 C1.98 0.99 3.96 1.98 6 3 C5.43040847 6.62613199 4.07625466 8.25517741 1.4375 10.75 C0.47650391 11.67039063 0.47650391 11.67039063 -0.50390625 12.609375 C-1.24447266 13.29773438 -1.24447266 13.29773438 -2 14 C-0.02 14 1.96 14 4 14 C0.81237635 16.12508244 -1.26512223 16.5020163 -5 17 C-1.92482916 5.47835991 -1.92482916 5.47835991 0 0 Z " fill="#56B540" transform="translate(76,138)"/>
<path d="M0 0 C0 1.66666667 0 3.33333333 0 5 C-0.66 5 -1.32 5 -2 5 C-2 6.32 -2 7.64 -2 9 C-1.34 9 -0.68 9 0 9 C0 9.99 0 10.98 0 12 C-0.99 12 -1.98 12 -3 12 C-3 10.68 -3 9.36 -3 8 C-5.0162233 8.71563266 -5.0162233 8.71563266 -7 10 C-7.80528889 12.05000871 -7.80528889 12.05000871 -8 14 C-8.66 14 -9.32 14 -10 14 C-10.33 14.99 -10.66 15.98 -11 17 C-11.33 17 -11.66 17 -12 17 C-12.36716265 12.71643573 -11.54434073 10.45303385 -9 7 C-5.5862069 4 -5.5862069 4 -3 4 C-3 3.01 -3 2.02 -3 1 C-2.01 0.67 -1.02 0.34 0 0 Z " fill="#DDDCDD" transform="translate(166,132)"/>
<path d="M0 0 C0 2.31 0 4.62 0 7 C-0.99 7.495 -0.99 7.495 -2 8 C-2.33 7.01 -2.66 6.02 -3 5 C-3.99 5 -4.98 5 -6 5 C-6.639375 5.639375 -7.27875 6.27875 -7.9375 6.9375 C-10 9 -10 9 -12.125 9.4375 C-12.74375 9.623125 -13.3625 9.80875 -14 10 C-15.29660434 12.49034386 -15.29660434 12.49034386 -16 15 C-17.32 14.34 -18.64 13.68 -20 13 C-17.94005539 11.39245904 -15.87719524 9.7889195 -13.8125 8.1875 C-12.9452832 7.50977539 -12.9452832 7.50977539 -12.06054688 6.81835938 C-3.25142564 0 -3.25142564 0 0 0 Z " fill="#58BC40" transform="translate(62,23)"/>
<path d="M0 0 C1.21236328 0.02707031 1.21236328 0.02707031 2.44921875 0.0546875 C3.37154297 0.08949219 3.37154297 0.08949219 4.3125 0.125 C4.3125 1.115 4.3125 2.105 4.3125 3.125 C2.0025 3.455 -0.3075 3.785 -2.6875 4.125 C-1.6975 4.785 -0.7075 5.445 0.3125 6.125 C-1.6675 6.785 -3.6475 7.445 -5.6875 8.125 C-6.6775 7.135 -7.6675 6.145 -8.6875 5.125 C-7.09467308 0.34651924 -4.63157396 -0.13424852 0 0 Z " fill="#DDDBDE" transform="translate(85.6875,152.875)"/>
<path d="M0 0 C2 1.5625 2 1.5625 4 4 C4.375 7.625 4.375 7.625 4 11 C3.34 11.66 2.68 12.32 2 13 C-3.02111282 6.9711898 -3.02111282 6.9711898 -2.9375 3.125 C-2 1 -2 1 0 0 Z " fill="#D0DBCE" transform="translate(158,68)"/>
<path d="M0 0 C0.33 1.32 0.66 2.64 1 4 C0.34 4 -0.32 4 -1 4 C-0.67 4.99 -0.34 5.98 0 7 C-0.6875 9.125 -0.6875 9.125 -2 11 C-4.125 11.75 -4.125 11.75 -6 12 C-6 12.99 -6 13.98 -6 15 C-7.98 15.99 -7.98 15.99 -10 17 C-8.51364884 12.78345644 -6.38750841 9.37521395 -3.875 5.6875 C-3.15054687 4.61886719 -2.42609375 3.55023438 -1.6796875 2.44921875 C-0.84824219 1.23685547 -0.84824219 1.23685547 0 0 Z " fill="#56B63F" transform="translate(31,48)"/>
<path d="M0 0 C0.66 0 1.32 0 2 0 C2.74926071 3.66305234 3.2380014 6.42355152 2 10 C2.66 10.33 3.32 10.66 4 11 C3.01 11.33 2.02 11.66 1 12 C0.67 12.66 0.34 13.32 0 14 C-0.99 14.495 -0.99 14.495 -2 15 C-2.33 15.99 -2.66 16.98 -3 18 C-3.75 15.8125 -3.75 15.8125 -4 13 C-3.360625 12.236875 -2.72125 11.47375 -2.0625 10.6875 C0.82225274 6.92857976 0.31502579 4.6466304 0 0 Z " fill="#51AF3B" transform="translate(107,88)"/>
<path d="M0 0 C0 3 0 3 -1 6 C-1.66 6 -2.32 6 -3 6 C-3 6.66 -3 7.32 -3 8 C-5.97 7.505 -5.97 7.505 -9 7 C-9.33 7.99 -9.66 8.98 -10 10 C-10.33 8.68 -10.66 7.36 -11 6 C-7.37 4.02 -3.74 2.04 0 0 Z " fill="#346B27" transform="translate(152,157)"/>
<path d="M0 0 C2 3 2 3 1.375 6.3125 C-0.045208 10.12123964 -1.61901062 12.74598119 -4 16 C-6.64 15.67 -9.28 15.34 -12 15 C-9 13 -9 13 -5.9375 11.5625 C-2.7770602 10.17919845 -2.7770602 10.17919845 -1 7 C-0.60612212 4.67612053 -0.26513915 2.34206251 0 0 Z " fill="#579A48" transform="translate(149,123)"/>
<path d="M0 0 C0.33 1.32 0.66 2.64 1 4 C0.34 4 -0.32 4 -1 4 C-1.268125 4.680625 -1.53625 5.36125 -1.8125 6.0625 C-2.68704293 8.22584305 -3.61127679 10.36926002 -4.5625 12.5 C-5.75655869 15.40727333 -6.5322325 17.9127345 -7 21 C-7.66 21 -8.32 21 -9 21 C-8.64251325 12.9565482 -4.37782455 6.56673683 0 0 Z " fill="#58AF43" transform="translate(78,75)"/>
<path d="M0 0 C4.75481646 0.57634139 7.97048212 2.55068521 12 5 C10.1875 5.625 10.1875 5.625 8 6 C7.01 5.34 6.02 4.68 5 4 C2.51948778 4.26259783 2.51948778 4.26259783 0 5 C-0.763125 5.185625 -1.52625 5.37125 -2.3125 5.5625 C-2.869375 5.706875 -3.42625 5.85125 -4 6 C-2.68 4.02 -1.36 2.04 0 0 Z " fill="#C4E1C3" transform="translate(133,115)"/>
<path d="M0 0 C0.99 0.33 1.98 0.66 3 1 C1.58833114 1.98635837 0.17043816 2.96381255 -1.25 3.9375 C-2.43335938 4.75541016 -2.43335938 4.75541016 -3.640625 5.58984375 C-5.82636993 6.89622441 -7.5153801 7.54980511 -10 8 C-9.67 6.35 -9.34 4.7 -9 3 C-7.88625 3.0928125 -7.88625 3.0928125 -6.75 3.1875 C-3.50680777 2.96637326 -2.51492951 1.92811262 0 0 Z " fill="#519B40" transform="translate(148,145)"/>
<path d="M0 0 C4.93912821 4.23353847 7.32134512 9.12975632 10 15 C9.01 15 8.02 15 7 15 C7 13.68 7 12.36 7 11 C6.01 10.67 5.02 10.34 4 10 C2.83203125 8.22265625 2.83203125 8.22265625 1.8125 6.0625 C1.46832031 5.35222656 1.12414062 4.64195313 0.76953125 3.91015625 C0 2 0 2 0 0 Z " fill="#C9DDC7" transform="translate(164,69)"/>
<path d="M0 0 C4.16138263 -0.08159574 7.9472484 0.01751476 12 1 C11.360625 1.309375 10.72125 1.61875 10.0625 1.9375 C8.06389179 2.8345163 8.06389179 2.8345163 7 4 C4.66702567 4.04092937 2.33294775 4.04241723 0 4 C0 2.68 0 1.36 0 0 Z " fill="#58BB42" transform="translate(124,10)"/>
<path d="M0 0 C1 2 1 2 0.22265625 4.6015625 C-0.16019531 5.59929687 -0.54304688 6.59703125 -0.9375 7.625 C-1.50791016 9.12933594 -1.50791016 9.12933594 -2.08984375 10.6640625 C-2.39019531 11.43492188 -2.69054688 12.20578125 -3 13 C-3.33 13 -3.66 13 -4 13 C-4 9 -4 5 -4 1 C-2.68 0.67 -1.36 0.34 0 0 Z " fill="#53B23D" transform="translate(63,79)"/>
<path d="M0 0 C0.33 0.99 0.66 1.98 1 3 C3.00016466 4.20882096 3.00016466 4.20882096 5 5 C1.38026598 6.31626692 -1.09567131 7 -5 7 C-3.70700306 4.11562221 -2.34058637 2.12780579 0 0 Z " fill="#C4D2BE" transform="translate(62,163)"/>
<path d="M0 0 C1.32 0.33 2.64 0.66 4 1 C4 3.64 4 6.28 4 9 C3.01 9 2.02 9 1 9 C0.67 6.03 0.34 3.06 0 0 Z " fill="#C8E3C3" transform="translate(145,121)"/>
<path d="M0 0 C3 1 3 1 3.94921875 2.84765625 C4.19285156 3.57855469 4.43648438 4.30945313 4.6875 5.0625 C4.93886719 5.79597656 5.19023438 6.52945313 5.44921875 7.28515625 C5.63097656 7.85105469 5.81273438 8.41695312 6 9 C1.25 8.25 1.25 8.25 -1 6 C-0.34 5.67 0.32 5.34 1 5 C0.67 3.35 0.34 1.7 0 0 Z " fill="#469134" transform="translate(66,198)"/>
<path d="M0 0 C1.1725131 0.95117134 2.33787015 1.91117009 3.5 2.875 C4.47453125 3.67550781 4.47453125 3.67550781 5.46875 4.4921875 C5.9740625 4.98976563 6.479375 5.48734375 7 6 C7 6.66 7 7.32 7 8 C5.0625 7.6875 5.0625 7.6875 3 7 C2.67 6.01 2.34 5.02 2 4 C1.01 4 0.02 4 -1 4 C-0.67 2.68 -0.34 1.36 0 0 Z " fill="#418B32" transform="translate(186,40)"/>
<path d="M0 0 C0.33 0.66 0.66 1.32 1 2 C-0.375 3.5 -0.375 3.5 -2 5 C-2.66 5 -3.32 5 -4 5 C-4.66 6.65 -5.32 8.3 -6 10 C-7.32 9.34 -8.64 8.68 -10 8 C-6.7 5.36 -3.4 2.72 0 0 Z " fill="#59B145" transform="translate(52,28)"/>
<path d="M0 0 C1.32 0.33 2.64 0.66 4 1 C4 1.99 4 2.98 4 4 C-1.625 7 -1.625 7 -5 7 C-5 6.34 -5 5.68 -5 5 C-3.68 5 -2.36 5 -1 5 C-0.67 3.35 -0.34 1.7 0 0 Z " fill="#DFDBDF" transform="translate(149,147)"/>
<path d="M0 0 C0.66 0 1.32 0 2 0 C0.84826645 2.46800047 -0.04783565 4.04783565 -2 6 C-6.10269692 5.68440793 -6.95904634 5.04095366 -10 2 C-7.03 2.33 -4.06 2.66 -1 3 C-0.67 2.01 -0.34 1.02 0 0 Z " fill="#5A984C" transform="translate(129,117)"/>
<path d="M0 0 C0.66 0 1.32 0 2 0 C1.42365861 4.75481646 -0.55068521 7.97048212 -3 12 C-5 9 -5 9 -5 7 C-4.01 6.67 -3.02 6.34 -2 6 C-0.77479736 2.99152582 -0.77479736 2.99152582 0 0 Z " fill="#225414" transform="translate(206,152)"/>
<path d="M0 0 C1.05902319 2.7534603 0.97095435 4.12938515 0.3125 7.0625 C-1.07097062 10.15883902 -2.13597554 11.28158532 -5 13 C-5.66 12.67 -6.32 12.34 -7 12 C-6.57847656 11.38511719 -6.15695313 10.77023438 -5.72265625 10.13671875 C-4.90087891 8.92435547 -4.90087891 8.92435547 -4.0625 7.6875 C-3.51722656 6.88699219 -2.97195312 6.08648437 -2.41015625 5.26171875 C-0.86162674 2.9741857 -0.86162674 2.9741857 0 0 Z " fill="#C4DEBF" transform="translate(164,126)"/>
<path d="M0 0 C0.66 0 1.32 0 2 0 C2 0.99 2 1.98 2 3 C3.98 2.67 5.96 2.34 8 2 C7.505 2.474375 7.01 2.94875 6.5 3.4375 C4.88457803 4.75923698 4.88457803 4.75923698 5 6 C4.67 6.99 4.34 7.98 4 9 C0 2.25 0 2.25 0 0 Z " fill="#56B13E" transform="translate(21,160)"/>
<path d="M0 0 C0.5534764 2.07553648 1 3.84365964 1 6 C-4.75 4.25 -4.75 4.25 -7 2 C-4.69 1.34 -2.38 0.68 0 0 Z " fill="#57B342" transform="translate(148,49)"/>
<path d="M0 0 C0.33 0.99 0.66 1.98 1 3 C0.34 3.66 -0.32 4.32 -1 5 C-1.6425235 7.06874034 -1.6425235 7.06874034 -2 9 C-3.32 8.67 -4.64 8.34 -6 8 C-4.02 5.36 -2.04 2.72 0 0 Z " fill="#C9DEC5" transform="translate(156,139)"/>
<path d="M0 0 C6.75 0.75 6.75 0.75 9 3 C7.68 3.33 6.36 3.66 5 4 C5 3.34 5 2.68 5 2 C3.02 2.99 3.02 2.99 1 4 C0.34 3.34 -0.32 2.68 -1 2 C-0.67 1.34 -0.34 0.68 0 0 Z " fill="#52B13E" transform="translate(128,58)"/>
<path d="M0 0 C1.32 1.32 2.64 2.64 4 4 C3.67 4.66 3.34 5.32 3 6 C2.01 6 1.02 6 0 6 C-0.66 4.35 -1.32 2.7 -2 1 C-1.34 0.67 -0.68 0.34 0 0 Z " fill="#3F9129" transform="translate(195,50)"/>
<path d="M0 0 C1.32 0.99 2.64 1.98 4 3 C2.63016497 6.16115776 2.0109362 6.9927092 -1 9 C-1.33 8.01 -1.66 7.02 -2 6 C-1.01 6 -0.02 6 1 6 C0.67 4.02 0.34 2.04 0 0 Z " fill="#56B841" transform="translate(182,36)"/>
<path d="M0 0 C3.3 1.65 6.6 3.3 10 5 C8.02 5.99 8.02 5.99 6 7 C5.566875 6.54625 5.13375 6.0925 4.6875 5.625 C2.89201658 3.79975666 2.89201658 3.79975666 0 2 C0 1.34 0 0.68 0 0 Z " fill="#5CB143" transform="translate(159,20)"/>
<path d="M0 0 C3.96 1.98 3.96 1.98 8 4 C6.02 4.99 6.02 4.99 4 6 C2.35 4.35 0.7 2.7 -1 1 C-0.67 0.67 -0.34 0.34 0 0 Z " fill="#3A8E25" transform="translate(49,192)"/>
<path d="M0 0 C0.33 0.99 0.66 1.98 1 3 C0.67 3.66 0.34 4.32 0 5 C-2.64860427 5.59355614 -5.29197322 5.74209269 -8 6 C-5.33333333 4 -2.66666667 2 0 0 Z " fill="#C9DEC4" transform="translate(148,147)"/>
<path d="M0 0 C0.33 0 0.66 0 1 0 C1.144375 1.11375 1.28875 2.2275 1.4375 3.375 C1.78372035 6.82142047 1.78372035 6.82142047 3 9 C2.34 9.66 1.68 10.32 1 11 C0.34 10.34 -0.32 9.68 -1 9 C-0.9765625 6.8359375 -0.9765625 6.8359375 -0.625 4.375 C-0.51414062 3.55773437 -0.40328125 2.74046875 -0.2890625 1.8984375 C-0.19367187 1.27195312 -0.09828125 0.64546875 0 0 Z " fill="#5AB643" transform="translate(12,86)"/>
<path d="M0 0 C0 0.33 0 0.66 0 1 C-1.65 1.33 -3.3 1.66 -5 2 C-5 2.99 -5 3.98 -5 5 C-5.66 5 -6.32 5 -7 5 C-7 4.34 -7 3.68 -7 3 C-7.66 2.67 -8.32 2.34 -9 2 C-5.96271914 -1.03728086 -4.06215635 -1.35405212 0 0 Z " fill="#C5D5C1" transform="translate(77,155)"/>
<path d="M0 0 C0.99 0.66 1.98 1.32 3 2 C3 3.32 3 4.64 3 6 C-0.16115776 4.63016497 -0.9927092 4.0109362 -3 1 C-2.01 0.67 -1.02 0.34 0 0 Z " fill="#489735" transform="translate(213,107)"/>
<path d="M0 0 C2.2477975 2.05233685 3.0022242 3.00667261 4 6 C2.35 6.33 0.7 6.66 -1 7 C-0.67 4.69 -0.34 2.38 0 0 Z " fill="#418F30" transform="translate(203,63)"/>
<path d="M0 0 C-3.28463659 2.18975773 -6.20696275 2.99806563 -10 4 C-9.67 3.01 -9.34 2.02 -9 1 C-6.04335481 -0.4783226 -3.25770263 -0.06032783 0 0 Z " fill="#C2D9C0" transform="translate(144,162)"/>
<path d="M0 0 C0.99 0 1.98 0 3 0 C2.34 2.97 1.68 5.94 1 9 C0.67 9 0.34 9 0 9 C-0.87890625 2.84765625 -0.87890625 2.84765625 -1 1 C-0.67 0.67 -0.34 0.34 0 0 Z " fill="#4FAF3D" transform="translate(60,147)"/>
<path d="M0 0 C4.875 4.75 4.875 4.75 6 7 C4.68 7.33 3.36 7.66 2 8 C0 2.25 0 2.25 0 0 Z " fill="#559C49" transform="translate(152,70)"/>
<path d="M0 0 C0.33 0.66 0.66 1.32 1 2 C1.66 2 2.32 2 3 2 C3 2.99 3 3.98 3 5 C1.35 5.33 -0.3 5.66 -2 6 C-1.34 4.02 -0.68 2.04 0 0 Z " fill="#58B841" transform="translate(20,65)"/>
<path d="M0 0 C0.33 0.99 0.66 1.98 1 3 C-0.65 3.33 -2.3 3.66 -4 4 C-4.33 4.99 -4.66 5.98 -5 7 C-5.33 5.68 -5.66 4.36 -6 3 C-4.02 2.01 -2.04 1.02 0 0 Z " fill="#3C6F32" transform="translate(147,160)"/>
<path d="M0 0 C3.465 1.485 3.465 1.485 7 3 C6.01 3.66 5.02 4.32 4 5 C1.3125 4.125 1.3125 4.125 -1 3 C-0.67 2.01 -0.34 1.02 0 0 Z " fill="#D0DACE" transform="translate(144,155)"/>
</svg>
