<?xml version="1.0" encoding="UTF-8"?>
<svg version="1.1" xmlns="http://www.w3.org/2000/svg" width="225" height="225">
<path d="M0 0 C74.25 0 148.5 0 225 0 C225 74.25 225 148.5 225 225 C150.75 225 76.5 225 0 225 C0 150.75 0 76.5 0 0 Z " fill="#28A719" transform="translate(0,0)"/>
<path d="M0 0 C74.25 0 148.5 0 225 0 C225 74.25 225 148.5 225 225 C150.75 225 76.5 225 0 225 C0 150.75 0 76.5 0 0 Z M16.890625 21.5859375 C10.5960037 29.62328453 6.89516609 37.73120525 6.85282898 47.91812134 C6.84567368 49.10390778 6.83851837 50.28969421 6.83114624 51.51141357 C6.82845734 52.80396057 6.82576843 54.09650757 6.82299805 55.42822266 C6.81672797 56.81011117 6.81008069 58.19199802 6.80308533 59.57388306 C6.78210384 64.10393107 6.77168715 68.63397917 6.76171875 73.1640625 C6.75766871 74.72801099 6.75355172 76.2919593 6.74936867 77.85590744 C6.73032845 85.20660629 6.71609606 92.55729519 6.7077567 99.90801394 C6.6979942 108.37172783 6.67169573 116.8351795 6.63125581 125.29880106 C6.60101567 131.85443573 6.58628029 138.40999558 6.58297569 144.9656986 C6.58063385 148.87457587 6.5717874 152.78317267 6.54651451 156.69197464 C6.52309037 160.3742112 6.51905737 164.05598544 6.52927589 167.73827744 C6.53000071 169.71736384 6.51101015 171.69642754 6.49121094 173.67541504 C6.56796993 186.9704734 10.77395368 197.29321879 19.87890625 207.00390625 C30.96205971 217.37057302 43.48185971 219.30485877 58.13208008 219.2746582 C59.42109726 219.27976913 60.71011444 219.28488007 62.03819275 219.29014587 C65.55077947 219.30345349 69.06325804 219.30412369 72.57586503 219.30158257 C75.52030815 219.300507 78.46472991 219.30541127 81.40916842 219.310188 C88.3630461 219.32125523 95.31686975 219.32173666 102.27075195 219.31567383 C109.41611825 219.30963926 116.56128737 219.32193822 123.70662004 219.3432439 C129.86661104 219.36092807 136.02653967 219.36685047 142.18655509 219.36360615 C145.85444902 219.36180359 149.52220235 219.3643255 153.19007301 219.37832069 C157.28675516 219.39336918 161.38304277 219.3838697 165.47973633 219.37231445 C166.67545258 219.37995819 167.87116882 219.38760193 169.1031189 219.39547729 C183.09289508 219.30871349 195.8416647 216.13123318 206.25 206.4375 C217.44539598 194.59079954 219.30701564 181.40860306 219.2746582 165.73852539 C219.27976913 164.44775589 219.28488007 163.15698639 219.29014587 161.82710266 C219.30343587 158.31464225 219.3041259 154.80229009 219.30158257 151.28980947 C219.3005062 148.34522192 219.30541305 145.40065569 219.310188 142.45607275 C219.32124821 135.50365764 219.32174005 128.55129658 219.31567383 121.59887695 C219.30963416 114.45290197 219.32195283 107.30712388 219.3432439 100.16118246 C219.36091745 94.00033768 219.3668523 87.83955525 219.36360615 81.67868608 C219.36180258 78.01028002 219.36433625 74.34201451 219.37832069 70.67363167 C219.39334804 66.57924942 219.38387887 62.48526269 219.37231445 58.39086914 C219.37995819 57.19312866 219.38760193 55.99538818 219.39547729 54.76135254 C219.30540677 40.2746115 215.14143529 28.71321146 205.2265625 18.07421875 C194.6020904 8.17668421 182.04620661 6.54407764 168.04248047 6.61181641 C166.67616356 6.60774121 165.30984996 6.60239405 163.94354248 6.59588623 C160.26593718 6.58232187 156.58858706 6.58746501 152.91097784 6.59702349 C149.04482227 6.60467394 145.17868704 6.59755993 141.31253052 6.59286499 C134.8250134 6.58742431 128.33759912 6.59455589 121.85009766 6.60888672 C114.36834514 6.62522381 106.88683779 6.61991031 99.40509117 6.6034075 C92.95805171 6.58976079 86.51108573 6.58788808 80.06403649 6.59572351 C76.22357742 6.60038081 72.38323334 6.6010785 68.54278183 6.59111404 C64.93272 6.58239954 61.32297221 6.58854721 57.71294403 6.60579681 C55.76935753 6.61160533 53.82574422 6.60278553 51.88217163 6.59341431 C38.00358426 6.69338012 26.56565232 11.39962825 16.890625 21.5859375 Z " fill="#F3F4F3" transform="translate(0,0)"/>
<path d="M0 0 C10.54711631 7.72682514 19.02323625 18.04617243 21.1875 31.25 C22.22869707 46.68615968 19.73521753 58.33613293 10.21875 70.8359375 C2.06086307 79.75482134 -9.96534439 85.56358275 -21.984375 86.49609375 C-30.42053795 86.80001665 -36.99721446 85.26239334 -44.8125 82.25 C-48.34783252 80.99552717 -50.39717676 81.50399039 -53.91015625 82.71875 C-54.87630859 83.04230469 -55.84246094 83.36585938 -56.83789062 83.69921875 C-57.84013672 84.04597656 -58.84238281 84.39273438 -59.875 84.75 C-61.86310571 85.43520235 -63.85389952 86.11266892 -65.84765625 86.78125 C-66.7281665 87.08611328 -67.60867676 87.39097656 -68.51586914 87.70507812 C-70.8125 88.25 -70.8125 88.25 -73.8125 87.25 C-73.5952124 86.65050537 -73.3779248 86.05101074 -73.15405273 85.43334961 C-72.16998688 82.69018998 -71.20989715 79.93920517 -70.25 77.1875 C-69.90775391 76.24455078 -69.56550781 75.30160156 -69.21289062 74.33007812 C-66.6123654 66.79118177 -66.51270682 61.72625032 -69.875 54.375 C-73.72975227 44.10978058 -73.08822231 32.10793059 -69.140625 21.9609375 C-62.8373812 9.09490456 -52.75207502 -0.74631251 -39.1875 -5.625 C-26.00748956 -9.08035595 -11.56791832 -7.22501383 0 0 Z " fill="#28A719" transform="translate(138.8125,46.75)"/>
<path d="M0 0 C10.54711631 7.72682514 19.02323625 18.04617243 21.1875 31.25 C22.22869707 46.68615968 19.73521753 58.33613293 10.21875 70.8359375 C2.06086307 79.75482134 -9.96534439 85.56358275 -21.984375 86.49609375 C-30.42053795 86.80001665 -36.99721446 85.26239334 -44.8125 82.25 C-48.34783252 80.99552717 -50.39717676 81.50399039 -53.91015625 82.71875 C-54.87630859 83.04230469 -55.84246094 83.36585938 -56.83789062 83.69921875 C-57.84013672 84.04597656 -58.84238281 84.39273438 -59.875 84.75 C-61.86310571 85.43520235 -63.85389952 86.11266892 -65.84765625 86.78125 C-66.7281665 87.08611328 -67.60867676 87.39097656 -68.51586914 87.70507812 C-70.8125 88.25 -70.8125 88.25 -73.8125 87.25 C-73.5952124 86.65050537 -73.3779248 86.05101074 -73.15405273 85.43334961 C-72.16998688 82.69018998 -71.20989715 79.93920517 -70.25 77.1875 C-69.90775391 76.24455078 -69.56550781 75.30160156 -69.21289062 74.33007812 C-66.6123654 66.79118177 -66.51270682 61.72625032 -69.875 54.375 C-73.72975227 44.10978058 -73.08822231 32.10793059 -69.140625 21.9609375 C-62.8373812 9.09490456 -52.75207502 -0.74631251 -39.1875 -5.625 C-26.00748956 -9.08035595 -11.56791832 -7.22501383 0 0 Z M-55.8203125 14.609375 C-63.37765795 24.79123791 -65.07209603 34.56677098 -64.15820312 47.05664062 C-63.44463931 51.58394099 -61.10366995 55.36423691 -58.953125 59.34375 C-57.021446 64.26556224 -58.81075633 67.64679998 -60.8125 72.25 C-61.18293747 73.90881433 -61.52638111 75.57458218 -61.8125 77.25 C-60.49185547 76.79947266 -60.49185547 76.79947266 -59.14453125 76.33984375 C-57.98308594 75.95957031 -56.82164063 75.57929687 -55.625 75.1875 C-54.47644531 74.80464844 -53.32789063 74.42179687 -52.14453125 74.02734375 C-46.31092761 72.66639753 -42.99340307 74.65954846 -37.8125 77.25 C-25.77629454 80.33244286 -14.35260068 78.38966312 -3.625 72.5 C5.04693614 65.56245109 9.66609374 58.81421879 13.1875 48.25 C14.02605577 34.5994118 13.25259995 24.26144319 4.23828125 13.35546875 C-3.03944129 5.88367361 -11.84374425 0.94735082 -22.35766602 0.78149414 C-23.10588623 0.79172607 -23.85410645 0.80195801 -24.625 0.8125 C-25.41253662 0.82079834 -26.20007324 0.82909668 -27.01147461 0.83764648 C-38.78161242 1.17704194 -48.14356466 5.58844953 -55.8203125 14.609375 Z " fill="#F6FBF5" transform="translate(138.8125,46.75)"/>
<path d="M0 0 C40.59 0 81.18 0 123 0 C123 1.98 123 3.96 123 6 C122.05976486 6.00586624 121.11952972 6.01173248 120.15080261 6.01777649 C111.25079836 6.07521417 102.35103353 6.14808398 93.45127392 6.23571491 C88.87679525 6.28027067 84.30240261 6.31955861 79.7277832 6.34643555 C75.30556289 6.37261714 70.88367632 6.41312228 66.4616642 6.46318626 C64.78219088 6.47975521 63.10265998 6.49133113 61.42311668 6.49761391 C49.80418806 6.54543793 39.17663122 7.14825186 28.875 13.125 C27.96492188 13.64320312 27.05484375 14.16140625 26.1171875 14.6953125 C24.09242299 15.83057039 24.09242299 15.83057039 23 17 C20.5 17.125 20.5 17.125 18 17 C17 16 17 16 16.9375 13.4375 C16.958125 12.633125 16.97875 11.82875 17 11 C15.35 11 13.7 11 12 11 C12 12.98 12 14.96 12 17 C10.02 17 8.04 17 6 17 C6 15.02 6 13.04 6 11 C4.35 11 2.7 11 1 11 C1 12.98 1 14.96 1 17 C0.67 17 0.34 17 0 17 C0 11.39 0 5.78 0 0 Z " fill="#FAF9FA" transform="translate(0,0)"/>
<path d="M0 0 C2.31 0 4.62 0 7 0 C10.23369254 7.59387634 13.23683071 15.22219013 16 23 C16.33 17.72 16.66 12.44 17 7 C19.31 7 21.62 7 24 7 C25.19625 6.7525 26.3925 6.505 27.625 6.25 C31 6 31 6 33.875 7.8125 C37.47673219 11.52016549 37.4017309 14.50361857 37.34375 19.51171875 C37 22 37 22 34.875 25.125 C31.54795388 27.29481269 29.895203 27.5193604 26 27 C25.34 26.67 24.68 26.34 24 26 C23.67 28.31 23.34 30.62 23 33 C21.02 33 19.04 33 17 33 C17 31.02 17 29.04 17 27 C15.02 27 13.04 27 11 27 C10.34 25.02 9.68 23.04 9 21 C5.37 21 1.74 21 -2 21 C-2.33 22.65 -2.66 24.3 -3 26 C-4.98 26 -6.96 26 -9 26 C-8.38443385 20.11792344 -6.17339219 15.03902565 -3.9375 9.625 C-3.56044922 8.69816406 -3.18339844 7.77132812 -2.79492188 6.81640625 C-1.86873604 4.54197521 -0.93697332 2.27000333 0 0 Z " fill="#EAF5E9" transform="translate(142,152)"/>
<path d="M0 0 C0.886875 0.12375 1.77375 0.2475 2.6875 0.375 C7.45627587 10.1467327 7.45627587 10.1467327 6.6875 14.375 C6.0275 15.035 5.3675 15.695 4.6875 16.375 C4.6875 20.89631068 7.09841713 23.60125609 10.0078125 26.7890625 C12.39108439 29.03931456 14.58817567 30.31991086 17.6875 31.375 C20.41183361 31.39802257 20.41183361 31.39802257 22.6875 30.375 C23.3475 29.385 24.0075 28.395 24.6875 27.375 C29.34810703 27.92983417 34.23746614 28.92496614 37.6875 32.375 C37.22308052 38.64466292 37.22308052 38.64466292 35.3125 41.25 C31.19786784 44.09859149 26.47335118 43.91350306 21.6875 43.375 C9.85788848 39.87215395 -0.10359773 30.54205673 -6.3671875 20.171875 C-8.71207063 15.71465913 -9.04906041 11.29656276 -8.3125 6.375 C-6.46286336 2.45249472 -4.4381384 0.50243076 0 0 Z " fill="#F9FCF9" transform="translate(99.3125,64.625)"/>
<path d="M0 0 C22.44 0 44.88 0 68 0 C68 1.65 68 3.3 68 5 C66.02 5 64.04 5 62 5 C62 5.66 62 6.32 62 7 C16.13 7 -29.74 7 -77 7 C-77 6.67 -77 6.34 -77 6 C-51.59 6 -26.18 6 0 6 C0 4.02 0 2.04 0 0 Z " fill="#D8EAD6" transform="translate(123,0)"/>
<path d="M0 0 C1.98 0 3.96 0 6 0 C4.38949895 9.22377877 1.71861481 18.05554976 -1 27 C-3.31 27 -5.62 27 -8 27 C-9.32 21.72 -10.64 16.44 -12 11 C-13.32 16.28 -14.64 21.56 -16 27 C-18.31 27 -20.62 27 -23 27 C-24.00597015 23.23073331 -25.00374802 19.45934588 -26 15.6875 C-26.28617188 14.61564453 -26.57234375 13.54378906 -26.8671875 12.43945312 C-27.13789063 11.41142578 -27.40859375 10.38339844 -27.6875 9.32421875 C-27.93886719 8.37635498 -28.19023437 7.42849121 -28.44921875 6.4519043 C-29 4 -29 4 -29 1 C-27.02 1 -25.04 1 -23 1 C-22.79503906 1.84304687 -22.59007812 2.68609375 -22.37890625 3.5546875 C-22.10949219 4.65039062 -21.84007812 5.74609375 -21.5625 6.875 C-21.16224609 8.51082031 -21.16224609 8.51082031 -20.75390625 10.1796875 C-20.1213522 12.92484721 -20.1213522 12.92484721 -19 15 C-17.68 10.38 -16.36 5.76 -15 1 C-13.02 1 -11.04 1 -9 1 C-6.5 8.5 -6.5 8.5 -4 16 C-2.68 10.72 -1.36 5.44 0 0 Z " fill="#F3F9F3" transform="translate(54,151)"/>
<path d="M0 0 C0.33 0 0.66 0 1 0 C1.00219984 1.051613 1.00219984 1.051613 1.00444412 2.12447071 C1.04157002 19.21942745 1.10066104 36.31416877 1.18390274 53.4089632 C1.2236344 61.67604694 1.25605661 69.94303629 1.27099609 78.21020508 C1.28404319 85.41973812 1.31108537 92.62906298 1.35461307 99.83847874 C1.37715957 103.65235769 1.39291481 107.46598053 1.39188385 111.27993202 C1.39113317 114.87766376 1.40924537 118.47483084 1.44116783 122.07241631 C1.4536056 124.00614378 1.4466347 125.93996643 1.43885803 127.87371826 C1.52140455 134.85270831 2.43329235 140.43349266 5.14419174 146.88769817 C6 149 6 149 6 151 C4.741875 151.185625 3.48375 151.37125 2.1875 151.5625 C1.47980469 151.66691406 0.77210937 151.77132812 0.04296875 151.87890625 C-2 152 -2 152 -5 151 C-5.83592899 147.36523699 -6.121937 144.0180922 -6.11352539 140.29174805 C-6.11344986 139.17096359 -6.11337433 138.05017914 -6.11329651 136.89543152 C-6.10813522 135.6963063 -6.10297394 134.49718109 -6.09765625 133.26171875 C-6.0962413 132.02581497 -6.09482635 130.78991119 -6.09336853 129.51655579 C-6.08872618 126.24341655 -6.07975311 122.97032713 -6.06866455 119.69720459 C-6.05840404 116.35217752 -6.05394631 113.00714827 -6.04882812 109.66210938 C-6.03780907 103.1080535 -6.02107836 96.55403082 -6 90 C-5.67 90 -5.34 90 -5 90 C-5 93.3 -5 96.6 -5 100 C-3.68 100 -2.36 100 -1 100 C-0.67 67 -0.34 34 0 0 Z " fill="#C7E0C5" transform="translate(6,46)"/>
<path d="M0 0 C2.62734958 1.70422676 3.71862637 3.04514497 4.60546875 6.0546875 C5.34747257 10.41855155 5.27173976 12.47526116 3.1875 16.5 C1 19 1 19 -1 20 C-4 20.1875 -4 20.1875 -7 20 C-7.66 19.34 -8.32 18.68 -9 18 C-9.33 20.64 -9.66 23.28 -10 26 C-11.65 26 -13.3 26 -15 26 C-15 17.42 -15 8.84 -15 0 C-12.66666667 0 -10.33333333 0 -8 0 C-5.02898609 -1.48550695 -3.16565278 -0.82306972 0 0 Z " fill="#F5FAF5" transform="translate(196,159)"/>
<path d="M0 0 C2.79306001 2.22012463 3.80188034 3.86174649 4.4140625 7.37890625 C4.67104714 11.91671398 4.4753796 14.30091236 1.875 18.125 C-1.45204612 20.29481269 -3.104797 20.5193604 -7 20 C-7.66 19.67 -8.32 19.34 -9 19 C-9.33 21.31 -9.66 23.62 -10 26 C-11.65 26 -13.3 26 -15 26 C-15 17.42 -15 8.84 -15 0 C-13.02 0 -11.04 0 -9 0 C-5.77839187 -1.61080407 -3.42436421 -0.82657067 0 0 Z " fill="#F4FAF3" transform="translate(175,159)"/>
<path d="M0 0 C2.296875 2.0234375 2.296875 2.0234375 2.69555664 3.86352539 C2.79051438 6.16502151 2.73202044 8.41086382 2.609375 10.7109375 C2.58681641 11.50822266 2.56425781 12.30550781 2.54101562 13.12695312 C2.48214444 15.09325084 2.39246255 17.05858241 2.296875 19.0234375 C1.348125 19.0028125 0.399375 18.9821875 -0.578125 18.9609375 C-3.60978783 18.79791924 -3.60978783 18.79791924 -5.703125 20.0234375 C-12.17371324 20.37637868 -12.17371324 20.37637868 -15.703125 18.0234375 C-16.140625 14.5859375 -16.140625 14.5859375 -15.703125 11.0234375 C-12.77140886 7.50537813 -9.08146873 7.44443209 -4.703125 7.0234375 C-4.703125 6.0334375 -4.703125 5.0434375 -4.703125 4.0234375 C-6.023125 4.0234375 -7.343125 4.0234375 -8.703125 4.0234375 C-9.033125 4.6834375 -9.363125 5.3434375 -9.703125 6.0234375 C-11.683125 6.0234375 -13.663125 6.0234375 -15.703125 6.0234375 C-14.26126453 1.45754603 -14.26126453 1.45754603 -12.015625 -0.2890625 C-7.78531757 -1.54672147 -4.1505941 -1.49949209 0 0 Z " fill="#EFF8EE" transform="translate(97.703125,158.9765625)"/>
<path d="M0 0 C1.65 0 3.3 0 5 0 C5 1.98 5 3.96 5 6 C6.98 6 8.96 6 11 6 C11 4.02 11 2.04 11 0 C12.65 0 14.3 0 16 0 C16.12375 1.175625 16.12375 1.175625 16.25 2.375 C16.71229528 5.15242111 16.71229528 5.15242111 19.046875 6.1640625 C19.69140625 6.43992187 20.3359375 6.71578125 21 7 C20.20335937 7.8353125 20.20335937 7.8353125 19.390625 8.6875 C14.89590089 13.54311436 11.64719747 17.93350581 9 24 C7.68 23.34 6.36 22.68 5 22 C5 20.35 5 18.7 5 17 C3.02 17 1.04 17 -1 17 C-1.18451025 5.47835991 -1.18451025 5.47835991 0 0 Z " fill="#EBEFEB" transform="translate(1,11)"/>
<path d="M0 0 C5.61 0 11.22 0 17 0 C17 1.65 17 3.3 17 5 C15.02 5 13.04 5 11 5 C11 6.98 11 8.96 11 11 C12.98 11 14.96 11 17 11 C17 12.98 17 14.96 17 17 C18.65 17 20.3 17 22 17 C22 18.65 22 20.3 22 22 C20.02 22.99 20.02 22.99 18 24 C17.21625 22.96875 16.4325 21.9375 15.625 20.875 C9.05043047 13.26882354 0.61917059 10.08476321 -9 8 C-8.01 7.67 -7.02 7.34 -6 7 C-6 6.34 -6 5.68 -6 5 C-4.02 5 -2.04 5 0 5 C0 3.35 0 1.7 0 0 Z " fill="#F1F2F1" transform="translate(191,0)"/>
<path d="M0 0 C1.65 0 3.3 0 5 0 C5 3.3 5 6.6 5 10 C5.66 10 6.32 10 7 10 C7 9.34 7 8.68 7 8 C10.25 7.25 10.25 7.25 14 7 C16.21875 8.46875 16.21875 8.46875 18 11 C18.2906124 13.89449949 18.38186045 16.37949935 18.25 19.25 C18.23195313 19.99507812 18.21390625 20.74015625 18.1953125 21.5078125 C18.14835649 23.33909701 18.07661652 25.16971649 18 27 C16.35 27 14.7 27 13 27 C12.67 22.38 12.34 17.76 12 13 C10.35 13 8.7 13 7 13 C5.12175109 14.87824891 5.60897603 18.03935276 5.4375 20.5625 C5.31181641 22.35880859 5.31181641 22.35880859 5.18359375 24.19140625 C5.12300781 25.11824219 5.06242187 26.04507813 5 27 C3.35 27 1.7 27 0 27 C0 18.09 0 9.18 0 0 Z " fill="#F8FCF7" transform="translate(61,151)"/>
<path d="M0 0 C0.76441406 0.07605469 1.52882813 0.15210938 2.31640625 0.23046875 C4.84865796 0.92532235 5.87338413 1.71868355 7.4375 3.8125 C7.4375 4.8025 7.4375 5.7925 7.4375 6.8125 C5.7875 6.8125 4.1375 6.8125 2.4375 6.8125 C2.4375 6.1525 2.4375 5.4925 2.4375 4.8125 C0.4575 4.8125 -1.5225 4.8125 -3.5625 4.8125 C-3.8925 5.4725 -4.2225 6.1325 -4.5625 6.8125 C-3.40621094 7.08513672 -3.40621094 7.08513672 -2.2265625 7.36328125 C-1.22367188 7.61464844 -0.22078125 7.86601562 0.8125 8.125 C1.81023437 8.36863281 2.80796875 8.61226562 3.8359375 8.86328125 C6.4375 9.8125 6.4375 9.8125 8.4375 12.8125 C8.2888992 15.78451597 7.84032185 17.32575693 5.9375 19.625 C2.12510242 21.43588885 -1.4279257 21.62175832 -5.5625 20.8125 C-8.625 18.4375 -8.625 18.4375 -10.5625 15.8125 C-10.5625 15.1525 -10.5625 14.4925 -10.5625 13.8125 C-8.5825 13.8125 -6.6025 13.8125 -4.5625 13.8125 C-4.2325 14.4725 -3.9025 15.1325 -3.5625 15.8125 C-1.9125 15.8125 -0.2625 15.8125 1.4375 15.8125 C1.4375 15.1525 1.4375 14.4925 1.4375 13.8125 C0.81101562 13.61914062 0.18453125 13.42578125 -0.4609375 13.2265625 C-1.27820313 12.96617187 -2.09546875 12.70578125 -2.9375 12.4375 C-4.15566406 12.05464844 -4.15566406 12.05464844 -5.3984375 11.6640625 C-7.5625 10.8125 -7.5625 10.8125 -9.5625 8.8125 C-9.4375 5.3125 -9.4375 5.3125 -8.5625 1.8125 C-5.64580732 -0.21566378 -3.47356948 -0.40554364 0 0 Z " fill="#EDF7EC" transform="translate(124.5625,158.1875)"/>
<path d="M0 0 C1.98 0 3.96 0 6 0 C6 1.98 6 3.96 6 6 C7.32 6 8.64 6 10 6 C10 7.32 10 8.64 10 10 C8.68 10 7.36 10 6 10 C6 13.63 6 17.26 6 21 C7.32 21 8.64 21 10 21 C10 22.65 10 24.3 10 26 C6.87049484 26.21337535 4.65086709 26.32543354 1.8125 24.90625 C0 23 0 23 -0.390625 19.86328125 C-0.34421875 18.69152344 -0.2978125 17.51976562 -0.25 16.3125 C-0.21390625 15.13300781 -0.1778125 13.95351562 -0.140625 12.73828125 C-0.09421875 11.83464844 -0.0478125 10.93101562 0 10 C-0.99 10 -1.98 10 -3 10 C-3 8.68 -3 7.36 -3 6 C-2.01 6 -1.02 6 0 6 C0 4.02 0 2.04 0 0 Z " fill="#E9F5E8" transform="translate(104,153)"/>
<path d="M0 0 C1.98 0 3.96 0 6 0 C6 5.61 6 11.22 6 17 C4.02 17 2.04 17 0 17 C0 15.02 0 13.04 0 11 C-1.98 11 -3.96 11 -6 11 C-5.67 9.35 -5.34 7.7 -5 6 C-3.35 6 -1.7 6 0 6 C0 4.02 0 2.04 0 0 Z M-11 11 C-9.35 11 -7.7 11 -6 11 C-6 12.98 -6 14.96 -6 17 C-7.65 17 -9.3 17 -11 17 C-11 15.02 -11 13.04 -11 11 Z " fill="#FDFDFD" transform="translate(219,203)"/>
<path d="M0 0 C5.61 0 11.22 0 17 0 C17 1.65 17 3.3 17 5 C15.68 5.33 14.36 5.66 13 6 C13 7.32 13 8.64 13 10 C11.20856793 10.9795958 9.41684696 11.9586633 7.625 12.9375 C6.62726562 13.48277344 5.62953125 14.02804687 4.6015625 14.58984375 C3.07929654 15.4149759 1.54871217 16.22564391 0 17 C0 15.02 0 13.04 0 11 C1.98 11 3.96 11 6 11 C6 9.02 6 7.04 6 5 C4.02 5 2.04 5 0 5 C0 3.35 0 1.7 0 0 Z " fill="#EDEDED" transform="translate(22,0)"/>
<path d="M0 0 C0 0.66 0 1.32 0 2 C-5.28 2 -10.56 2 -16 2 C-16 3.65 -16 5.3 -16 7 C-21.61 7 -27.22 7 -33 7 C-33 5.35 -33 3.7 -33 2 C-34.98 2 -36.96 2 -39 2 C-39 1.67 -39 1.34 -39 1 C-34.41019224 0.85640142 -29.82034873 0.71402534 -25.23046875 0.57275391 C-23.67088816 0.52458278 -22.11131764 0.47608477 -20.55175781 0.42724609 C-18.30276042 0.35687517 -16.05372879 0.28770195 -13.8046875 0.21875 C-13.1138205 0.19687622 -12.42295349 0.17500244 -11.71115112 0.15246582 C-7.80580218 0.03404068 -3.90707789 -0.02126301 0 0 Z " fill="#EBECEB" transform="translate(185,218)"/>
<path d="M0 0 C1.98 0 3.96 0 6 0 C6 1.65 6 3.3 6 5 C7.65 5 9.3 5 11 5 C11 4.01 11 3.02 11 2 C14.875 3.75 14.875 3.75 16 6 C14.68 6 13.36 6 12 6 C12.33 7.98 12.66 9.96 13 12 C10.3333581 13.33332095 8.83319697 12.67102033 6 12 C6 13.65 6 15.3 6 17 C4.02 17 2.04 17 0 17 C0 15.02 0 13.04 0 11 C1.98 11 3.96 11 6 11 C6 9.35 6 7.7 6 6 C4.02 6 2.04 6 0 6 C0 4.02 0 2.04 0 0 Z " fill="#FAFAFA" transform="translate(6,203)"/>
<path d="M0 0 C1.65 0.33 3.3 0.66 5 1 C5.33 2.65 5.66 4.3 6 6 C7.65 6 9.3 6 11 6 C11 7.65 11 9.3 11 11 C5.39 11 -0.22 11 -6 11 C-6 9.35 -6 7.7 -6 6 C-4.02 6 -2.04 6 0 6 C0 4.02 0 2.04 0 0 Z " fill="#F9FAF9" transform="translate(28,214)"/>
<path d="M0 0 C0.33 0 0.66 0 1 0 C1.12375 1.0725 1.2475 2.145 1.375 3.25 C1.81001307 5.23562266 1.81001307 5.23562266 3 7 C6.1845878 8.82955623 9.4874601 9.95660715 13 11 C12.67 11.99 12.34 12.98 12 14 C10.35 14 8.7 14 7 14 C6.67 13.01 6.34 12.02 6 11 C4.02 11 2.04 11 0 11 C0 11.66 0 12.32 0 13 C-1.32 13 -2.64 13 -4 13 C-4 9.37 -4 5.74 -4 2 C-2.68 2 -1.36 2 0 2 C0 1.34 0 0.68 0 0 Z " fill="#1BA40F" transform="translate(114,161)"/>
<path d="M0 0 C2.5 0.25 2.5 0.25 4.5 2.25 C5.05186722 8.32053942 5.05186722 8.32053942 3.3125 11.25 C1.5 12.25 1.5 12.25 -1.125 12 C-3.5 11.25 -3.5 11.25 -4.5 10.25 C-4.77314815 4.51388889 -4.77314815 4.51388889 -4.5 2.25 C-2.5 0.25 -2.5 0.25 0 0 Z " fill="#29A81D" transform="translate(169.5,162.75)"/>
<path d="M0 0 C2.5 0.25 2.5 0.25 4.5 2.25 C4.81537716 6.58643601 4.94897847 8.57653229 2.5 12.25 C-2.25 11.5 -2.25 11.5 -4.5 9.25 C-4.75 5.75 -4.75 5.75 -4.5 2.25 C-2.5 0.25 -2.5 0.25 0 0 Z " fill="#27A71A" transform="translate(190.5,162.75)"/>
<path d="M0 0 C5.29441695 -0.50423019 7.81413519 0.81076967 12 4 C11.01 4.495 11.01 4.495 10 5 C10 6.98 10 8.96 10 11 C8.02 11 6.04 11 4 11 C4 9.02 4 7.04 4 5 C2.68 5 1.36 5 0 5 C0 3.35 0 1.7 0 0 Z " fill="#EDF0ED" transform="translate(18,209)"/>
<path d="M0 0 C3.1875 -0.5 3.1875 -0.5 7 0 C9.27533071 2.36347912 10.86921123 4.91977851 12 8 C11.67 8.99 11.34 9.98 11 11 C9.35 11 7.7 11 6 11 C6 9.35 6 7.7 6 6 C4.02 6 2.04 6 0 6 C0 4.02 0 2.04 0 0 Z " fill="#EBEBEB" transform="translate(6,197)"/>
<path d="M0 0 C1.65 0 3.3 0 5 0 C5.12375 0.804375 5.2475 1.60875 5.375 2.4375 C5.684375 3.7059375 5.684375 3.7059375 6 5 C6.66 5.33 7.32 5.66 8 6 C7.44894091 9.9492568 6.61064629 13.34920174 5 17 C3.35 17 1.7 17 0 17 C0 15.35 0 13.7 0 12 C1.65 11.67 3.3 11.34 5 11 C5 9.35 5 7.7 5 6 C3.35 6 1.7 6 0 6 C0 4.02 0 2.04 0 0 Z " fill="#FDFDFD" transform="translate(1,28)"/>
<path d="M0 0 C1.65 0.33 3.3 0.66 5 1 C4.67 2.32 4.34 3.64 4 5 C3.37351562 5.07476562 2.74703125 5.14953125 2.1015625 5.2265625 C-0.40149352 5.62926236 -2.63679951 6.07470275 -5 7 C-6.48775515 9.87966141 -6.48775515 9.87966141 -7 13 C-7.99 13.99 -8.98 14.98 -10 16 C-10 11.71 -10 7.42 -10 3 C-7.03 3 -4.06 3 -1 3 C-0.67 2.01 -0.34 1.02 0 0 Z " fill="#44B137" transform="translate(89,162)"/>
<path d="M0 0 C1.65 0 3.3 0 5 0 C5 1.98 5 3.96 5 6 C3.35 6 1.7 6 0 6 C-0.33 7.65 -0.66 9.3 -1 11 C-2.65 11 -4.3 11 -6 11 C-6 9.35 -6 7.7 -6 6 C-4.35 5.67 -2.7 5.34 -1 5 C-0.67 3.35 -0.34 1.7 0 0 Z " fill="#EBEBEB" transform="translate(214,203)"/>
<path d="M0 0 C0 0.66 0 1.32 0 2 C-5.28 2 -10.56 2 -16 2 C-16 3.65 -16 5.3 -16 7 C-17.98 7 -19.96 7 -22 7 C-22 5.02 -22 3.04 -22 1 C-19.45847098 0.83096719 -16.91681012 0.66470573 -14.375 0.5 C-13.30572266 0.42845703 -13.30572266 0.42845703 -12.21484375 0.35546875 C-8.13492439 0.09345558 -4.09108781 -0.05162256 0 0 Z " fill="#E8EDE8" transform="translate(185,218)"/>
<path d="M0 0 C1.65 0 3.3 0 5 0 C5 1.65 5 3.3 5 5 C3.02 5 1.04 5 -1 5 C-0.67 3.35 -0.34 1.7 0 0 Z M-6 5 C-4.35 5 -2.7 5 -1 5 C-1 6.98 -1 8.96 -1 11 C-2.65 11 -4.3 11 -6 11 C-6 9.02 -6 7.04 -6 5 Z " fill="#FEFEFE" transform="translate(214,209)"/>
<path d="M0 0 C0.99 0 1.98 0 3 0 C3 1.65 3 3.3 3 5 C4.98 5 6.96 5 9 5 C9 6.98 9 8.96 9 11 C6.69 11 4.38 11 2 11 C1.34 7.37 0.68 3.74 0 0 Z " fill="#E7EBE6" transform="translate(216,34)"/>
<path d="M0 0 C1.65 0 3.3 0 5 0 C5 0.99 5 1.98 5 3 C5.66 3.33 6.32 3.66 7 4 C5.20856793 4.9795958 3.41684696 5.9586633 1.625 6.9375 C0.62726562 7.48277344 -0.37046875 8.02804687 -1.3984375 8.58984375 C-2.92070346 9.4149759 -4.45128783 10.22564391 -6 11 C-6 9.02 -6 7.04 -6 5 C-4.02 5 -2.04 5 0 5 C0 3.35 0 1.7 0 0 Z " fill="#E2E9E2" transform="translate(28,6)"/>
<path d="M0 0 C1.65 0 3.3 0 5 0 C5.0825 0.78375 5.165 1.5675 5.25 2.375 C5.72806339 5.14749104 5.72806339 5.14749104 8.0625 6.3125 C8.701875 6.539375 9.34125 6.76625 10 7 C8.35 8.32 6.7 9.64 5 11 C5 9.35 5 7.7 5 6 C3.35 6 1.7 6 0 6 C0 4.02 0 2.04 0 0 Z " fill="#E3E8E2" transform="translate(12,11)"/>
<path d="M0 0 C5.61 0 11.22 0 17 0 C17 0.33 17 0.66 17 1 C15.02 1 13.04 1 11 1 C11 2.65 11 4.3 11 6 C9.35 6 7.7 6 6 6 C6 4.35 6 2.7 6 1 C4.02 1 2.04 1 0 1 C0 0.67 0 0.34 0 0 Z " fill="#EBECEB" transform="translate(101,219)"/>
<path d="M0 0 C5.61 0 11.22 0 17 0 C17 0.33 17 0.66 17 1 C15.02 1 13.04 1 11 1 C11 2.65 11 4.3 11 6 C9.35 6 7.7 6 6 6 C6 4.35 6 2.7 6 1 C4.02 1 2.04 1 0 1 C0 0.67 0 0.34 0 0 Z " fill="#EBECEB" transform="translate(56,219)"/>
<path d="M0 0 C1.98 0 3.96 0 6 0 C6 1.65 6 3.3 6 5 C4.02 5 2.04 5 0 5 C0 6.98 0 8.96 0 11 C-0.99 11.495 -0.99 11.495 -2 12 C-1.34 8.04 -0.68 4.08 0 0 Z " fill="#DFE7DF" transform="translate(219,175)"/>
<path d="M0 0 C1.98 0 3.96 0 6 0 C6 1.65 6 3.3 6 5 C4.02 5 2.04 5 0 5 C0 3.35 0 1.7 0 0 Z M-4 5 C-2.68 5 -1.36 5 0 5 C0 5.66 0 6.32 0 7 C-1.32 7 -2.64 7 -4 7 C-4 6.34 -4 5.68 -4 5 Z " fill="#FDFDFD" transform="translate(185,0)"/>
<path d="M0 0 C1.98 0 3.96 0 6 0 C6 1.98 6 3.96 6 6 C4.02 6 2.04 6 0 6 C0 4.02 0 2.04 0 0 Z " fill="#FDFDFD" transform="translate(219,214)"/>
<path d="M0 0 C1.98 0 3.96 0 6 0 C6 1.98 6 3.96 6 6 C4.02 6 2.04 6 0 6 C0 4.02 0 2.04 0 0 Z " fill="#FDFDFD" transform="translate(219,180)"/>
<path d="M0 0 C1.98 0 3.96 0 6 0 C6 1.98 6 3.96 6 6 C4.02 6 2.04 6 0 6 C0 4.02 0 2.04 0 0 Z " fill="#FCFCFC" transform="translate(219,169)"/>
<path d="M0 0 C1.98 0 3.96 0 6 0 C6 1.98 6 3.96 6 6 C4.02 6 2.04 6 0 6 C0 4.02 0 2.04 0 0 Z " fill="#EBECEB" transform="translate(219,152)"/>
<path d="M0 0 C1.98 0 3.96 0 6 0 C6 1.98 6 3.96 6 6 C4.02 6 2.04 6 0 6 C0 4.02 0 2.04 0 0 Z " fill="#FCFDFC" transform="translate(219,135)"/>
<path d="M0 0 C1.98 0 3.96 0 6 0 C6 1.98 6 3.96 6 6 C4.02 6 2.04 6 0 6 C0 4.02 0 2.04 0 0 Z " fill="#EBECEB" transform="translate(219,107)"/>
<path d="M0 0 C1.98 0 3.96 0 6 0 C6 1.98 6 3.96 6 6 C4.02 6 2.04 6 0 6 C0 4.02 0 2.04 0 0 Z " fill="#FCFDFC" transform="translate(219,101)"/>
<path d="M0 0 C1.98 0 3.96 0 6 0 C6 1.98 6 3.96 6 6 C4.02 6 2.04 6 0 6 C0 4.02 0 2.04 0 0 Z " fill="#EBECEB" transform="translate(219,73)"/>
<path d="M0 0 C1.98 0 3.96 0 6 0 C6 1.98 6 3.96 6 6 C4.02 6 2.04 6 0 6 C0 4.02 0 2.04 0 0 Z " fill="#FCFDFC" transform="translate(219,56)"/>
<path d="M0 0 C1.98 0 3.96 0 6 0 C6 1.98 6 3.96 6 6 C4.02 6 2.04 6 0 6 C0 4.02 0 2.04 0 0 Z " fill="#FDFDFD" transform="translate(219,11)"/>
<path d="M0 0 C1.98 0 3.96 0 6 0 C6 1.98 6 3.96 6 6 C4.02 6 2.04 6 0 6 C0 4.02 0 2.04 0 0 Z " fill="#FEFEFE" transform="translate(6,11)"/>
<path d="M0 0 C1.98 0 3.96 0 6 0 C6 1.98 6 3.96 6 6 C4.02 6 2.04 6 0 6 C0 4.02 0 2.04 0 0 Z " fill="#ECECEC" transform="translate(219,5)"/>
<path d="M0 0 C1.98 0 3.96 0 6 0 C6 1.98 6 3.96 6 6 C4.02 6 2.04 6 0 6 C0 4.02 0 2.04 0 0 Z " fill="#ECECEC" transform="translate(6,5)"/>
<path d="M0 0 C1.98 0 3.96 0 6 0 C6 1.98 6 3.96 6 6 C4.02 6 2.04 6 0 6 C0 4.02 0 2.04 0 0 Z " fill="#FDFDFD" transform="translate(202,5)"/>
<path d="M0 0 C1.98 0 3.96 0 6 0 C6 1.98 6 3.96 6 6 C4.02 6 2.04 6 0 6 C0 4.02 0 2.04 0 0 Z " fill="#FDFDFD" transform="translate(22,5)"/>
<path d="M0 0 C1.65 0.33 3.3 0.66 5 1 C4.67 2.32 4.34 3.64 4 5 C-3.42857143 5.28571429 -3.42857143 5.28571429 -7 3 C-5.02 3 -3.04 3 -1 3 C-0.67 2.01 -0.34 1.02 0 0 Z " fill="#1EA612" transform="translate(89,162)"/>
<path d="M0 0 C1.98 0 3.96 0 6 0 C6 1.65 6 3.3 6 5 C4.34385343 5.38218767 2.67542976 5.71395102 1 6 C0 5 0 5 -0.0625 2.4375 C-0.041875 1.633125 -0.02125 0.82875 0 0 Z " fill="#FCFCFC" transform="translate(219,113)"/>
<path d="M0 0 C2.6855594 2.6855594 3.06049974 5.37621328 4 9 C1.69 9 -0.62 9 -3 9 C-2.01 6.03 -1.02 3.06 0 0 Z " fill="#20A616" transform="translate(145,159)"/>
<path d="M0 0 C1.4540625 0.0309375 1.4540625 0.0309375 2.9375 0.0625 C2.6075 1.7125 2.2775 3.3625 1.9375 5.0625 C0.2875 5.0625 -1.3625 5.0625 -3.0625 5.0625 C-3.625 3.125 -3.625 3.125 -4.0625 1.0625 C-3.0625 0.0625 -3.0625 0.0625 0 0 Z " fill="#20A616" transform="translate(91.0625,169.9375)"/>
<path d="M0 0 C1.98 0 3.96 0 6 0 C6 1.98 6 3.96 6 6 C4.02 6 2.04 6 0 6 C0 4.02 0 2.04 0 0 Z " fill="#EBEBEB" transform="translate(219,163)"/>
<path d="M0 0 C1.98 0 3.96 0 6 0 C6 1.98 6 3.96 6 6 C4.02 6 2.04 6 0 6 C0 4.02 0 2.04 0 0 Z " fill="#EBEBEB" transform="translate(219,118)"/>
<path d="M0 0 C0 1.98 0 3.96 0 6 C-1.98 6 -3.96 6 -6 6 C-6 4.35 -6 2.7 -6 1 C-1.125 0 -1.125 0 0 0 Z " fill="#EBEBEB" transform="translate(225,197)"/>
<path d="M0 0 C1.98 0 3.96 0 6 0 C6 1.98 6 3.96 6 6 C4.35 6 2.7 6 1 6 C0.67 4.02 0.34 2.04 0 0 Z " fill="#FEFDFE" transform="translate(213,197)"/>
<path d="M0 0 C0 1.98 0 3.96 0 6 C-1.98 6 -3.96 6 -6 6 C-6 4.35 -6 2.7 -6 1 C-1.125 0 -1.125 0 0 0 Z " fill="#FCFDFC" transform="translate(225,146)"/>
<path d="M0 0 C0 1.98 0 3.96 0 6 C-1.98 6 -3.96 6 -6 6 C-6 4.35 -6 2.7 -6 1 C-1.125 0 -1.125 0 0 0 Z " fill="#EBEBEB" transform="translate(225,95)"/>
<path d="M0 0 C0 1.98 0 3.96 0 6 C-1.98 6 -3.96 6 -6 6 C-6 4.35 -6 2.7 -6 1 C-1.125 0 -1.125 0 0 0 Z " fill="#FCFDFC" transform="translate(225,67)"/>
<path d="M0 0 C0 1.98 0 3.96 0 6 C-1.98 6 -3.96 6 -6 6 C-6 4.35 -6 2.7 -6 1 C-1.125 0 -1.125 0 0 0 Z " fill="#EBEBEB" transform="translate(225,50)"/>
<path d="M0 0 C1.65 0 3.3 0 5 0 C5.33 0.99 5.66 1.98 6 3 C4.5625 5.1875 4.5625 5.1875 3 7 C2.01 6.34 1.02 5.68 0 5 C-0.1875 2.375 -0.1875 2.375 0 0 Z " fill="#E3E9E2" transform="translate(6,28)"/>
<path d="M0 0 C0 1.98 0 3.96 0 6 C-1.98 6 -3.96 6 -6 6 C-6 4.35 -6 2.7 -6 1 C-1.125 0 -1.125 0 0 0 Z " fill="#FDFDFD" transform="translate(225,22)"/>
<path d="M0 0 C1.98 0 3.96 0 6 0 C6 1.98 6 3.96 6 6 C3.03 5.505 3.03 5.505 0 5 C0 3.35 0 1.7 0 0 Z " fill="#FDFDFD" transform="translate(6,23)"/>
<path d="M0 0 C1.98 0 3.96 0 6 0 C6 1.65 6 3.3 6 5 C4.02 5 2.04 5 0 5 C0 3.35 0 1.7 0 0 Z " fill="#EBEBEB" transform="translate(219,220)"/>
<path d="M0 0 C1.98 0 3.96 0 6 0 C6 1.65 6 3.3 6 5 C4.02 5 2.04 5 0 5 C0 3.35 0 1.7 0 0 Z " fill="#FEFEFE" transform="translate(202,220)"/>
<path d="M0 0 C1.98 0 3.96 0 6 0 C6 1.65 6 3.3 6 5 C4.02 5 2.04 5 0 5 C0 3.35 0 1.7 0 0 Z " fill="#FEFEFE" transform="translate(191,220)"/>
<path d="M0 0 C1.98 0 3.96 0 6 0 C6 1.65 6 3.3 6 5 C4.02 5 2.04 5 0 5 C0 3.35 0 1.7 0 0 Z " fill="#FEFEFE" transform="translate(157,220)"/>
<path d="M0 0 C1.98 0 3.96 0 6 0 C6 1.65 6 3.3 6 5 C4.02 5 2.04 5 0 5 C0 3.35 0 1.7 0 0 Z " fill="#FEFEFE" transform="translate(146,220)"/>
<path d="M0 0 C1.98 0 3.96 0 6 0 C6 1.65 6 3.3 6 5 C4.02 5 2.04 5 0 5 C0 3.35 0 1.7 0 0 Z " fill="#EBEBEB" transform="translate(129,220)"/>
<path d="M0 0 C1.98 0 3.96 0 6 0 C6 1.65 6 3.3 6 5 C4.02 5 2.04 5 0 5 C0 3.35 0 1.7 0 0 Z " fill="#FEFEFE" transform="translate(112,220)"/>
<path d="M0 0 C1.98 0 3.96 0 6 0 C6 1.65 6 3.3 6 5 C4.02 5 2.04 5 0 5 C0 3.35 0 1.7 0 0 Z " fill="#FEFEFE" transform="translate(101,220)"/>
<path d="M0 0 C1.98 0 3.96 0 6 0 C6 1.65 6 3.3 6 5 C4.02 5 2.04 5 0 5 C0 3.35 0 1.7 0 0 Z " fill="#EBEBEB" transform="translate(84,220)"/>
<path d="M0 0 C1.98 0 3.96 0 6 0 C6 1.65 6 3.3 6 5 C4.02 5 2.04 5 0 5 C0 3.35 0 1.7 0 0 Z " fill="#FEFEFE" transform="translate(67,220)"/>
<path d="M0 0 C1.98 0 3.96 0 6 0 C6 1.65 6 3.3 6 5 C4.02 5 2.04 5 0 5 C0 3.35 0 1.7 0 0 Z " fill="#FEFEFE" transform="translate(56,220)"/>
<path d="M0 0 C1.98 0 3.96 0 6 0 C6 1.65 6 3.3 6 5 C4.02 5 2.04 5 0 5 C0 3.35 0 1.7 0 0 Z " fill="#FEFEFE" transform="translate(22,220)"/>
<path d="M0 0 C1.98 0 3.96 0 6 0 C6 1.65 6 3.3 6 5 C4.02 5 2.04 5 0 5 C0 3.35 0 1.7 0 0 Z " fill="#EBEBEB" transform="translate(6,220)"/>
<path d="M0 0 C1.98 0 3.96 0 6 0 C6 1.65 6 3.3 6 5 C4.02 5 2.04 5 0 5 C0 3.35 0 1.7 0 0 Z " fill="#EBEBEB" transform="translate(219,209)"/>
<path d="M0 0 C1.98 0 3.96 0 6 0 C6 1.65 6 3.3 6 5 C4.02 5 2.04 5 0 5 C0 3.35 0 1.7 0 0 Z " fill="#FDFEFD" transform="translate(202,209)"/>
<path d="M0 0 C1.98 0 3.96 0 6 0 C6 1.65 6 3.3 6 5 C4.02 5 2.04 5 0 5 C0 3.35 0 1.7 0 0 Z " fill="#EBEBEB" transform="translate(6,209)"/>
<path d="M0 0 C0.33 0 0.66 0 1 0 C1 1.65 1 3.3 1 5 C0.0409375 5.37125 0.0409375 5.37125 -0.9375 5.75 C-3.18741541 6.81562433 -3.18741541 6.81562433 -3.75 9.125 C-3.8325 9.74375 -3.915 10.3625 -4 11 C-5.65 11 -7.3 11 -9 11 C-8.60167969 10.54109375 -8.20335937 10.0821875 -7.79296875 9.609375 C-5.51584567 6.97212297 -3.26746549 4.35969497 -1.1875 1.5625 C-0.795625 1.046875 -0.40375 0.53125 0 0 Z " fill="#E0E9DF" transform="translate(212,198)"/>
<path d="M0 0 C1.65 0 3.3 0 5 0 C5 1.98 5 3.96 5 6 C3.35 6 1.7 6 0 6 C0 4.02 0 2.04 0 0 Z " fill="#FEFEFE" transform="translate(1,152)"/>
<path d="M0 0 C1.98 0 3.96 0 6 0 C6 1.65 6 3.3 6 5 C4.02 5 2.04 5 0 5 C0 3.35 0 1.7 0 0 Z " fill="#EBEBEB" transform="translate(219,130)"/>
<path d="M0 0 C1.65 0 3.3 0 5 0 C5 1.98 5 3.96 5 6 C3.35 6 1.7 6 0 6 C0 4.02 0 2.04 0 0 Z " fill="#FEFEFE" transform="translate(1,107)"/>
<path d="M0 0 C1.65 0 3.3 0 5 0 C5 1.98 5 3.96 5 6 C3.35 6 1.7 6 0 6 C0 4.02 0 2.04 0 0 Z " fill="#ECEBEC" transform="translate(1,101)"/>
<path d="M0 0 C1.98 0 3.96 0 6 0 C6 1.65 6 3.3 6 5 C4.02 5 2.04 5 0 5 C0 3.35 0 1.7 0 0 Z " fill="#FDFDFD" transform="translate(219,79)"/>
<path d="M0 0 C1.65 0 3.3 0 5 0 C5 1.98 5 3.96 5 6 C3.35 6 1.7 6 0 6 C0 4.02 0 2.04 0 0 Z " fill="#FEFEFE" transform="translate(1,73)"/>
<path d="M0 0 C1.98 0 3.96 0 6 0 C6 1.65 6 3.3 6 5 C4.02 5 2.04 5 0 5 C0 3.35 0 1.7 0 0 Z " fill="#FEFEFE" transform="translate(219,34)"/>
<path d="M0 0 C1.65 0 3.3 0 5 0 C5 1.65 5 3.3 5 5 C3.02 5.66 1.04 6.32 -1 7 C-1.33 6.01 -1.66 5.02 -2 4 C-1.34 4 -0.68 4 0 4 C0 2.68 0 1.36 0 0 Z " fill="#E8EAE8" transform="translate(214,23)"/>
<path d="M0 0 C1.98 0 3.96 0 6 0 C6 1.65 6 3.3 6 5 C4.02 5 2.04 5 0 5 C0 3.35 0 1.7 0 0 Z " fill="#EBEBEB" transform="translate(6,17)"/>
<path d="M0 0 C1.65 0 3.3 0 5 0 C5 1.98 5 3.96 5 6 C3.35 6 1.7 6 0 6 C0 4.02 0 2.04 0 0 Z " fill="#EAEAEA" transform="translate(214,11)"/>
<path d="M0 0 C1.65 0 3.3 0 5 0 C5 1.98 5 3.96 5 6 C3.35 6 1.7 6 0 6 C0 4.02 0 2.04 0 0 Z " fill="#FEFEFE" transform="translate(208,11)"/>
<path d="M0 0 C1.65 0 3.3 0 5 0 C5 1.98 5 3.96 5 6 C3.35 6 1.7 6 0 6 C0 4.02 0 2.04 0 0 Z " fill="#EAEAEA" transform="translate(1,11)"/>
<path d="M0 0 C1.98 0 3.96 0 6 0 C6 1.65 6 3.3 6 5 C4.02 5 2.04 5 0 5 C0 3.35 0 1.7 0 0 Z " fill="#FEFEFE" transform="translate(219,0)"/>
<path d="M0 0 C1.98 0 3.96 0 6 0 C6 1.65 6 3.3 6 5 C4.02 5 2.04 5 0 5 C0 3.35 0 1.7 0 0 Z " fill="#EBEBEB" transform="translate(202,0)"/>
<path d="M0 0 C1.98 0 3.96 0 6 0 C6 1.65 6 3.3 6 5 C4.02 5 2.04 5 0 5 C0 3.35 0 1.7 0 0 Z " fill="#ECECEC" transform="translate(168,0)"/>
<path d="M0 0 C1.98 0 3.96 0 6 0 C6 1.65 6 3.3 6 5 C4.02 5 2.04 5 0 5 C0 3.35 0 1.7 0 0 Z " fill="#EBEBEB" transform="translate(157,0)"/>
<path d="M0 0 C1.98 0 3.96 0 6 0 C6 1.65 6 3.3 6 5 C4.02 5 2.04 5 0 5 C0 3.35 0 1.7 0 0 Z " fill="#ECECEC" transform="translate(146,0)"/>
<path d="M0 0 C1.98 0 3.96 0 6 0 C6 1.65 6 3.3 6 5 C4.02 5 2.04 5 0 5 C0 3.35 0 1.7 0 0 Z " fill="#ECECEC" transform="translate(123,0)"/>
<path d="M0 0 C1.98 0 3.96 0 6 0 C6 1.65 6 3.3 6 5 C4.02 5 2.04 5 0 5 C0 3.35 0 1.7 0 0 Z " fill="#EBEBEB" transform="translate(112,0)"/>
<path d="M0 0 C1.98 0 3.96 0 6 0 C6 1.65 6 3.3 6 5 C4.02 5 2.04 5 0 5 C0 3.35 0 1.7 0 0 Z " fill="#ECECEC" transform="translate(101,0)"/>
<path d="M0 0 C1.98 0 3.96 0 6 0 C6 1.65 6 3.3 6 5 C4.02 5 2.04 5 0 5 C0 3.35 0 1.7 0 0 Z " fill="#ECECEC" transform="translate(78,0)"/>
<path d="M0 0 C1.98 0 3.96 0 6 0 C6 1.65 6 3.3 6 5 C4.02 5 2.04 5 0 5 C0 3.35 0 1.7 0 0 Z " fill="#EBEBEB" transform="translate(67,0)"/>
<path d="M0 0 C1.98 0 3.96 0 6 0 C6 1.65 6 3.3 6 5 C4.02 5 2.04 5 0 5 C0 3.35 0 1.7 0 0 Z " fill="#ECECEC" transform="translate(56,0)"/>
<path d="M0 0 C1.98 0 3.96 0 6 0 C6 1.65 6 3.3 6 5 C4.02 5 2.04 5 0 5 C0 3.35 0 1.7 0 0 Z " fill="#FEFEFE" transform="translate(50,0)"/>
<path d="M0 0 C1.98 0 3.96 0 6 0 C6 1.65 6 3.3 6 5 C4.02 5 2.04 5 0 5 C0 3.35 0 1.7 0 0 Z " fill="#FEFEFE" transform="translate(39,0)"/>
<path d="M0 0 C1.98 0 3.96 0 6 0 C6 1.65 6 3.3 6 5 C4.02 5 2.04 5 0 5 C0 3.35 0 1.7 0 0 Z " fill="#EBEBEB" transform="translate(22,0)"/>
<path d="M0 0 C1.98 0 3.96 0 6 0 C6 1.65 6 3.3 6 5 C4.02 5 2.04 5 0 5 C0 3.35 0 1.7 0 0 Z " fill="#FEFEFE" transform="translate(6,0)"/>
<path d="M0 0 C3 3 3 3 3.1875 5.6875 C3.125625 6.450625 3.06375 7.21375 3 8 C1.02 8 -0.96 8 -3 8 C-2.01 5.36 -1.02 2.72 0 0 Z " fill="#E3E9E3" transform="translate(216,189)"/>
<path d="M0 0 C1.32 0 2.64 0 4 0 C4 1.98 4 3.96 4 6 C2.35 6 0.7 6 -1 6 C-1.042721 4.33388095 -1.04063832 2.66617115 -1 1 C-0.67 0.67 -0.34 0.34 0 0 Z " fill="#FEFEFE" transform="translate(2,163)"/>
<path d="M0 0 C1.32 0 2.64 0 4 0 C4 1.98 4 3.96 4 6 C2.35 6 0.7 6 -1 6 C-1.042721 4.33388095 -1.04063832 2.66617115 -1 1 C-0.67 0.67 -0.34 0.34 0 0 Z " fill="#FEFEFE" transform="translate(2,118)"/>
<path d="M0 0 C1.32 0 2.64 0 4 0 C4 1.98 4 3.96 4 6 C2.35 6 0.7 6 -1 6 C-1.042721 4.33388095 -1.04063832 2.66617115 -1 1 C-0.67 0.67 -0.34 0.34 0 0 Z " fill="#FEFEFE" transform="translate(2,84)"/>
<path d="M0 0 C1 2 1 2 0.44140625 3.9453125 C0.15136719 4.66460937 -0.13867188 5.38390625 -0.4375 6.125 C-0.72496094 6.84945312 -1.01242188 7.57390625 -1.30859375 8.3203125 C-1.53675781 8.87460937 -1.76492187 9.42890625 -2 10 C-3.32 10 -4.64 10 -6 10 C-6 8.35 -6 6.7 -6 5 C-4.35 5 -2.7 5 -1 5 C-0.67 3.35 -0.34 1.7 0 0 Z " fill="#E6E9E6" transform="translate(7,40)"/>
<path d="M0 0 C1.32 0 2.64 0 4 0 C4 1.98 4 3.96 4 6 C2.35 6 0.7 6 -1 6 C-1.042721 4.33388095 -1.04063832 2.66617115 -1 1 C-0.67 0.67 -0.34 0.34 0 0 Z " fill="#FEFEFE" transform="translate(215,5)"/>
<path d="M0 0 C0.66 0.33 1.32 0.66 2 1 C2 2.65 2 4.3 2 6 C0.35 6 -1.3 6 -3 6 C-3 5.01 -3 4.02 -3 3 C-3.66 2.67 -4.32 2.34 -5 2 C-2.625 0.9375 -2.625 0.9375 0 0 Z " fill="#E3E9E3" transform="translate(194,214)"/>
<path d="M0 0 C1.65 0 3.3 0 5 0 C5 1.65 5 3.3 5 5 C3.02 5.99 3.02 5.99 1 7 C0.67 4.69 0.34 2.38 0 0 Z " fill="#E8EAE8" transform="translate(208,17)"/>
<path d="M0 0 C1.32 0 2.64 0 4 0 C4 1.98 4 3.96 4 6 C2.35 5.67 0.7 5.34 -1 5 C-0.67 3.35 -0.34 1.7 0 0 Z " fill="#FEFEFE" transform="translate(18,11)"/>
<path d="M0 0 C0 1.98 0 3.96 0 6 C-1.65 6 -3.3 6 -5 6 C-5 4.35 -5 2.7 -5 1 C-3 0 -3 0 0 0 Z " fill="#FEFEFE" transform="translate(6,197)"/>
<path d="M0 0 C1.32 0 2.64 0 4 0 C4 1.98 4 3.96 4 6 C2.68 6 1.36 6 0 6 C-0.38218767 4.34385343 -0.71395102 2.67542976 -1 1 C-0.67 0.67 -0.34 0.34 0 0 Z " fill="#F7FBF6" transform="translate(215,28)"/>
<path d="M0 0 C1.65 0 3.3 0 5 0 C5 1.98 5 3.96 5 6 C3.35 5.67 1.7 5.34 0 5 C0 3.35 0 1.7 0 0 Z " fill="#FCFDFC" transform="translate(12,17)"/>
<path d="M0 0 C1.98 0 3.96 0 6 0 C6.33 1.65 6.66 3.3 7 5 C3.7 4.34 0.4 3.68 -3 3 C-2.01 2.67 -1.02 2.34 0 2 C0 1.34 0 0.68 0 0 Z " fill="#D9E6D8" transform="translate(185,5)"/>
<path d="M0 0 C2.475 0.495 2.475 0.495 5 1 C5.33 2.32 5.66 3.64 6 5 C4.02 5 2.04 5 0 5 C0 3.35 0 1.7 0 0 Z " fill="#FAFCFA" transform="translate(6,192)"/>
<path d="M0 0 C1.65 0 3.3 0 5 0 C5 1.65 5 3.3 5 5 C4.01 5.495 4.01 5.495 3 6 C2.01 5.67 1.02 5.34 0 5 C0 3.35 0 1.7 0 0 Z " fill="#EAEAEA" transform="translate(1,192)"/>
<path d="M0 0 C1.65 0 3.3 0 5 0 C5 1.98 5 3.96 5 6 C3.35 5.67 1.7 5.34 0 5 C0 3.35 0 1.7 0 0 Z " fill="#FFFEFF" transform="translate(1,141)"/>
<path d="M0 0 C1.65 0 3.3 0 5 0 C5 1.98 5 3.96 5 6 C3.35 5.67 1.7 5.34 0 5 C0 3.35 0 1.7 0 0 Z " fill="#FFFEFF" transform="translate(1,62)"/>
<path d="M0 0 C1.65 0 3.3 0 5 0 C5 1.65 5 3.3 5 5 C3.35 5 1.7 5 0 5 C0 3.35 0 1.7 0 0 Z " fill="#FFFFFF" transform="translate(214,220)"/>
<path d="M0 0 C1.65 0 3.3 0 5 0 C5 1.65 5 3.3 5 5 C3.35 5 1.7 5 0 5 C0 3.35 0 1.7 0 0 Z " fill="#EAEAEA" transform="translate(197,220)"/>
<path d="M0 0 C1.65 0 3.3 0 5 0 C5 1.65 5 3.3 5 5 C3.35 5 1.7 5 0 5 C0 3.35 0 1.7 0 0 Z " fill="#EAEAEA" transform="translate(186,220)"/>
<path d="M0 0 C1.65 0 3.3 0 5 0 C5 1.65 5 3.3 5 5 C3.35 5 1.7 5 0 5 C0 3.35 0 1.7 0 0 Z " fill="#FFFFFF" transform="translate(169,220)"/>
<path d="M0 0 C1.65 0 3.3 0 5 0 C5 1.65 5 3.3 5 5 C3.35 5 1.7 5 0 5 C0 3.35 0 1.7 0 0 Z " fill="#EAEAEA" transform="translate(141,220)"/>
<path d="M0 0 C1.65 0 3.3 0 5 0 C5 1.65 5 3.3 5 5 C3.35 5 1.7 5 0 5 C0 3.35 0 1.7 0 0 Z " fill="#FFFFFF" transform="translate(135,220)"/>
<path d="M0 0 C1.65 0 3.3 0 5 0 C5 1.65 5 3.3 5 5 C3.35 5 1.7 5 0 5 C0 3.35 0 1.7 0 0 Z " fill="#FFFFFF" transform="translate(124,220)"/>
<path d="M0 0 C1.65 0 3.3 0 5 0 C5 1.65 5 3.3 5 5 C3.35 5 1.7 5 0 5 C0 3.35 0 1.7 0 0 Z " fill="#EAEAEA" transform="translate(118,220)"/>
<path d="M0 0 C1.65 0 3.3 0 5 0 C5 1.65 5 3.3 5 5 C3.35 5 1.7 5 0 5 C0 3.35 0 1.7 0 0 Z " fill="#EAEAEA" transform="translate(96,220)"/>
<path d="M0 0 C1.65 0 3.3 0 5 0 C5 1.65 5 3.3 5 5 C3.35 5 1.7 5 0 5 C0 3.35 0 1.7 0 0 Z " fill="#FFFFFF" transform="translate(90,220)"/>
<path d="M0 0 C1.65 0 3.3 0 5 0 C5 1.65 5 3.3 5 5 C3.35 5 1.7 5 0 5 C0 3.35 0 1.7 0 0 Z " fill="#FFFFFF" transform="translate(79,220)"/>
<path d="M0 0 C1.65 0 3.3 0 5 0 C5 1.65 5 3.3 5 5 C3.35 5 1.7 5 0 5 C0 3.35 0 1.7 0 0 Z " fill="#EAEAEA" transform="translate(73,220)"/>
<path d="M0 0 C1.65 0 3.3 0 5 0 C5 1.65 5 3.3 5 5 C3.35 5 1.7 5 0 5 C0 3.35 0 1.7 0 0 Z " fill="#EAEAEA" transform="translate(51,220)"/>
<path d="M0 0 C1.65 0 3.3 0 5 0 C5 1.65 5 3.3 5 5 C3.35 5 1.7 5 0 5 C0 3.35 0 1.7 0 0 Z " fill="#FFFFFF" transform="translate(45,220)"/>
<path d="M0 0 C1.65 0 3.3 0 5 0 C5 1.65 5 3.3 5 5 C3.35 5 1.7 5 0 5 C0 3.35 0 1.7 0 0 Z " fill="#FFFFFF" transform="translate(34,220)"/>
<path d="M0 0 C1.65 0 3.3 0 5 0 C5 1.65 5 3.3 5 5 C3.35 5 1.7 5 0 5 C0 3.35 0 1.7 0 0 Z " fill="#EAEAEA" transform="translate(28,220)"/>
<path d="M0 0 C1.65 0 3.3 0 5 0 C5 1.65 5 3.3 5 5 C3.35 5 1.7 5 0 5 C0 3.35 0 1.7 0 0 Z " fill="#FFFFFF" transform="translate(12,220)"/>
<path d="M0 0 C1.65 0 3.3 0 5 0 C5 1.65 5 3.3 5 5 C3.35 5 1.7 5 0 5 C0 3.35 0 1.7 0 0 Z " fill="#FFFFFF" transform="translate(1,220)"/>
<path d="M0 0 C1.65 0 3.3 0 5 0 C5 1.65 5 3.3 5 5 C3.35 5 1.7 5 0 5 C0 3.35 0 1.7 0 0 Z " fill="#EAEAEA" transform="translate(12,215)"/>
<path d="M0 0 C1.65 0 3.3 0 5 0 C5 1.65 5 3.3 5 5 C3.35 5 1.7 5 0 5 C0 3.35 0 1.7 0 0 Z " fill="#EAEAEA" transform="translate(1,215)"/>
<path d="M0 0 C1.65 0 3.3 0 5 0 C5 1.65 5 3.3 5 5 C3.35 5 1.7 5 0 5 C0 3.35 0 1.7 0 0 Z " fill="#FFFFFF" transform="translate(12,209)"/>
<path d="M0 0 C1.65 0 3.3 0 5 0 C5 1.65 5 3.3 5 5 C3.35 5 1.7 5 0 5 C0 3.35 0 1.7 0 0 Z " fill="#FFFFFF" transform="translate(1,209)"/>
<path d="M0 0 C1.65 0 3.3 0 5 0 C5 1.65 5 3.3 5 5 C3.35 5 1.7 5 0 5 C0 3.35 0 1.7 0 0 Z " fill="#EAEAEA" transform="translate(1,203)"/>
<path d="M0 0 C1.65 0 3.3 0 5 0 C5 1.65 5 3.3 5 5 C3.35 5 1.7 5 0 5 C0 3.35 0 1.7 0 0 Z " fill="#EAEAEA" transform="translate(219,186)"/>
<path d="M0 0 C1.65 0 3.3 0 5 0 C5 1.65 5 3.3 5 5 C3.35 5 1.7 5 0 5 C0 3.35 0 1.7 0 0 Z " fill="#FFFFFF" transform="translate(1,186)"/>
<path d="M0 0 C1.65 0 3.3 0 5 0 C5 1.65 5 3.3 5 5 C3.35 5 1.7 5 0 5 C0 3.35 0 1.7 0 0 Z " fill="#EAEAEA" transform="translate(1,181)"/>
<path d="M0 0 C1.65 0 3.3 0 5 0 C5 1.65 5 3.3 5 5 C3.35 5 1.7 5 0 5 C0 3.35 0 1.7 0 0 Z " fill="#FFFFFF" transform="translate(1,175)"/>
<path d="M0 0 C2.97 0.495 2.97 0.495 6 1 C6 2.32 6 3.64 6 5 C3.69 4.34 1.38 3.68 -1 3 C-0.67 2.01 -0.34 1.02 0 0 Z " fill="#33AC27" transform="translate(121,162)"/>
<path d="M0 0 C1.65 0 3.3 0 5 0 C5 1.65 5 3.3 5 5 C3.35 5 1.7 5 0 5 C0 3.35 0 1.7 0 0 Z " fill="#EBEBEB" transform="translate(1,158)"/>
<path d="M0 0 C1.65 0 3.3 0 5 0 C5 1.65 5 3.3 5 5 C3.35 5 1.7 5 0 5 C0 3.35 0 1.7 0 0 Z " fill="#EBEBEB" transform="translate(1,147)"/>
<path d="M0 0 C1.65 0 3.3 0 5 0 C5 1.65 5 3.3 5 5 C3.35 5 1.7 5 0 5 C0 3.35 0 1.7 0 0 Z " fill="#FFFFFF" transform="translate(1,130)"/>
<path d="M0 0 C1.65 0 3.3 0 5 0 C5 1.65 5 3.3 5 5 C3.35 5 1.7 5 0 5 C0 3.35 0 1.7 0 0 Z " fill="#FFFFFF" transform="translate(1,96)"/>
<path d="M0 0 C1.65 0 3.3 0 5 0 C5 1.65 5 3.3 5 5 C3.35 5 1.7 5 0 5 C0 3.35 0 1.7 0 0 Z " fill="#EBEBEB" transform="translate(1,79)"/>
<path d="M0 0 C1.65 0 3.3 0 5 0 C5 1.65 5 3.3 5 5 C3.35 5 1.7 5 0 5 C0 3.35 0 1.7 0 0 Z " fill="#EBEBEB" transform="translate(1,68)"/>
<path d="M0 0 C1.65 0 3.3 0 5 0 C5 1.65 5 3.3 5 5 C3.35 5 1.7 5 0 5 C0 3.35 0 1.7 0 0 Z " fill="#FFFFFF" transform="translate(1,51)"/>
<path d="M0 0 C1.65 0 3.3 0 5 0 C5 1.65 5 3.3 5 5 C3.35 5 1.7 5 0 5 C0 3.35 0 1.7 0 0 Z " fill="#EAEAEA" transform="translate(1,34)"/>
<path d="M0 0 C1.65 0 3.3 0 5 0 C5 1.65 5 3.3 5 5 C3.35 5 1.7 5 0 5 C0 3.35 0 1.7 0 0 Z " fill="#EAEAEA" transform="translate(1,23)"/>
<path d="M0 0 C1.65 0 3.3 0 5 0 C5 1.65 5 3.3 5 5 C3.35 5 1.7 5 0 5 C0 3.35 0 1.7 0 0 Z " fill="#EAEAEA" transform="translate(219,17)"/>
<path d="M0 0 C1.65 0 3.3 0 5 0 C5 1.65 5 3.3 5 5 C3.35 5 1.7 5 0 5 C0 3.35 0 1.7 0 0 Z " fill="#FFFFFF" transform="translate(214,17)"/>
<path d="M0 0 C1.65 0 3.3 0 5 0 C5 1.65 5 3.3 5 5 C3.35 5 1.7 5 0 5 C0 3.35 0 1.7 0 0 Z " fill="#FFFFFF" transform="translate(1,17)"/>
<path d="M0 0 C1.65 0 3.3 0 5 0 C5 1.65 5 3.3 5 5 C3.35 5 1.7 5 0 5 C0 3.35 0 1.7 0 0 Z " fill="#EAEAEA" transform="translate(208,6)"/>
<path d="M0 0 C1.65 0 3.3 0 5 0 C5 1.65 5 3.3 5 5 C3.35 5 1.7 5 0 5 C0 3.35 0 1.7 0 0 Z " fill="#EAEAEA" transform="translate(214,0)"/>
<path d="M0 0 C1.65 0 3.3 0 5 0 C5 1.65 5 3.3 5 5 C3.35 5 1.7 5 0 5 C0 3.35 0 1.7 0 0 Z " fill="#FFFFFF" transform="translate(208,0)"/>
<path d="M0 0 C1.65 0 3.3 0 5 0 C5 1.65 5 3.3 5 5 C3.35 5 1.7 5 0 5 C0 3.35 0 1.7 0 0 Z " fill="#FFFFFF" transform="translate(197,0)"/>
<path d="M0 0 C1.65 0 3.3 0 5 0 C5 1.65 5 3.3 5 5 C3.35 5 1.7 5 0 5 C0 3.35 0 1.7 0 0 Z " fill="#EAEAEA" transform="translate(191,0)"/>
<path d="M0 0 C1.65 0 3.3 0 5 0 C5 1.65 5 3.3 5 5 C3.35 5 1.7 5 0 5 C0 3.35 0 1.7 0 0 Z " fill="#EAEAEA" transform="translate(180,0)"/>
<path d="M0 0 C1.65 0 3.3 0 5 0 C5 1.65 5 3.3 5 5 C3.35 5 1.7 5 0 5 C0 3.35 0 1.7 0 0 Z " fill="#EAEAEA" transform="translate(135,0)"/>
<path d="M0 0 C1.65 0 3.3 0 5 0 C5 1.65 5 3.3 5 5 C3.35 5 1.7 5 0 5 C0 3.35 0 1.7 0 0 Z " fill="#FFFFFF" transform="translate(107,0)"/>
<path d="M0 0 C1.65 0 3.3 0 5 0 C5 1.65 5 3.3 5 5 C3.35 5 1.7 5 0 5 C0 3.35 0 1.7 0 0 Z " fill="#EAEAEA" transform="translate(90,0)"/>
<path d="M0 0 C1.65 0 3.3 0 5 0 C5 1.65 5 3.3 5 5 C3.35 5 1.7 5 0 5 C0 3.35 0 1.7 0 0 Z " fill="#FFFFFF" transform="translate(73,0)"/>
<path d="M0 0 C1.65 0 3.3 0 5 0 C5 1.65 5 3.3 5 5 C3.35 5 1.7 5 0 5 C0 3.35 0 1.7 0 0 Z " fill="#FFFFFF" transform="translate(62,0)"/>
<path d="M0 0 C1.65 0 3.3 0 5 0 C5 1.65 5 3.3 5 5 C3.35 5 1.7 5 0 5 C0 3.35 0 1.7 0 0 Z " fill="#EAEAEA" transform="translate(45,0)"/>
<path d="M0 0 C1.65 0 3.3 0 5 0 C5 1.65 5 3.3 5 5 C3.35 5 1.7 5 0 5 C0 3.35 0 1.7 0 0 Z " fill="#FFFFFF" transform="translate(28,0)"/>
<path d="M0 0 C1.65 0 3.3 0 5 0 C5 1.65 5 3.3 5 5 C3.35 5 1.7 5 0 5 C0 3.35 0 1.7 0 0 Z " fill="#EAEAEA" transform="translate(12,0)"/>
<path d="M0 0 C1.65 0 3.3 0 5 0 C5 1.65 5 3.3 5 5 C3.35 5 1.7 5 0 5 C0 3.35 0 1.7 0 0 Z " fill="#EAEAEA" transform="translate(1,0)"/>
<path d="M0 0 C1.98 0 3.96 0 6 0 C6 0.99 6 1.98 6 3 C4.35 3 2.7 3 1 3 C1 4.65 1 6.3 1 8 C0.67 8 0.34 8 0 8 C0 5.36 0 2.72 0 0 Z " fill="#F4F8F3" transform="translate(185,217)"/>
<path d="M0 0 C3.3125 -0.25 3.3125 -0.25 7 0 C8.9375 1.875 8.9375 1.875 10 4 C10 4.66 10 5.32 10 6 C8.68 6 7.36 6 6 6 C6 4.35 6 2.7 6 1 C4.02 1 2.04 1 0 1 C0 0.67 0 0.34 0 0 Z " fill="#F0F6EF" transform="translate(6,197)"/>
<path d="M0 0 C1.32 0 2.64 0 4 0 C4 1.65 4 3.3 4 5 C2.68 5 1.36 5 0 5 C0 3.35 0 1.7 0 0 Z " fill="#EAEAEA" transform="translate(18,220)"/>
<path d="M0 0 C2.31 0.66 4.62 1.32 7 2 C6.67 2.99 6.34 3.98 6 5 C4.35 5 2.7 5 1 5 C0.67 3.35 0.34 1.7 0 0 Z " fill="#E3E9E2" transform="translate(33,215)"/>
<path d="M0 0 C1.32 0 2.64 0 4 0 C4 1.65 4 3.3 4 5 C2.68 5 1.36 5 0 5 C0 3.35 0 1.7 0 0 Z " fill="#EAEAEA" transform="translate(18,209)"/>
<path d="M0 0 C1.4606285 2.64738916 2 3.89448334 2 7 C0.68 7.33 -0.64 7.66 -2 8 C-1.125 1.125 -1.125 1.125 0 0 Z " fill="#3FB136" transform="translate(42,161)"/>
<path d="M0 0 C1.32 0 2.64 0 4 0 C4 1.65 4 3.3 4 5 C2.68 5 1.36 5 0 5 C0 3.35 0 1.7 0 0 Z " fill="#EAEAEA" transform="translate(1,136)"/>
<path d="M0 0 C1.32 0 2.64 0 4 0 C4 1.65 4 3.3 4 5 C2.68 5 1.36 5 0 5 C0 3.35 0 1.7 0 0 Z " fill="#EAEAEA" transform="translate(1,124)"/>
<path d="M0 0 C1.32 0 2.64 0 4 0 C4 1.65 4 3.3 4 5 C2.68 5 1.36 5 0 5 C0 3.35 0 1.7 0 0 Z " fill="#EAEAEA" transform="translate(1,90)"/>
<path d="M0 0 C2.31 0 4.62 0 7 0 C7 1.32 7 2.64 7 4 C4.08482708 2.92598892 2.22189824 2.22189824 0 0 Z " fill="#F2F8F1" transform="translate(195,11)"/>
<path d="M0 0 C1.32 0 2.64 0 4 0 C4 0.99 4 1.98 4 3 C2.35 3.33 0.7 3.66 -1 4 C-0.67 2.68 -0.34 1.36 0 0 Z " fill="#FCFDFC" transform="translate(35,5)"/>
</svg>
